<?xml version="1.0" encoding="utf-8"?>
<!-- Generator: Adobe Illustrator 25.1.0, SVG Export Plug-In . SVG Version: 6.00 Build 0)  -->
<svg version="1.1" id="Layer_1" xmlns="http://www.w3.org/2000/svg" xmlns:xlink="http://www.w3.org/1999/xlink" x="0px" y="0px"
	 viewBox="0 0 348 112" style="enable-background:new 0 0 348 112;" xml:space="preserve">
<style type="text/css">
	.st0{fill:#FFFFFF;stroke:#010101;stroke-miterlimit:10;}
	.st1{fill:#FFFFFF;}
	.st2{font-family:'Poppins-Regular';}
	.st3{font-size:34.5086px;}
	.st4{font-family:'BrushScriptMT';}
</style>
<g>
	<path class="st0" d="M66.6,51.4h-8h-3h-8h-3v3.1v8.2v3.1V74v3.1h3h8h3h8h3V74v-8.2v-3.1v-8.2v-3.1H66.6z M47.7,54.5h8v8.2h-8V54.5z
		 M47.7,74v-8.2h8V74H47.7z M66.6,74h-8v-8.2h8V74z M66.6,62.7h-8v-8.2h8V62.7z"/>
	<path class="st0" d="M101.7,83.5l-39.9-58c0.8-1,1.2-2.3,1.2-3.7c0-3.4-2.7-6.2-6-6.2c-3.3,0-6,2.8-6,6.2c0,1.5,0.5,2.9,1.4,3.9
		L12.7,83.5l2.3,1.7l39.7-57.7c0.7,0.3,1.5,0.5,2.3,0.5c0.7,0,1.3-0.1,1.9-0.3l39.9,57.9L101.7,83.5z"/>
</g>
<text transform="matrix(0.962 0 0 1 113.408 43.624)"><tspan x="0" y="0" class="st1 st2 st3">MIAMI POOL </tspan><tspan x="0" y="41.4" class="st1 st4 st3">REPAIRS</tspan></text>
</svg>
