<?xml version="1.0" encoding="utf-8"?>
<!-- Generator: Adobe Illustrator 25.1.0, SVG Export Plug-In . SVG Version: 6.00 Build 0)  -->
<svg version="1.1" id="Layer_1" xmlns="http://www.w3.org/2000/svg" xmlns:xlink="http://www.w3.org/1999/xlink" x="0px" y="0px"
	 viewBox="0 0 348 112" style="enable-background:new 0 0 348 112;" xml:space="preserve">
<style type="text/css">
	.st0{fill:#262262;}
</style>
<g>
	<path class="st0" d="M67.4,29.6h-7.2v-2.9h17.5v2.9h-7.2v23.3h-3.1V29.6z"/>
	<path class="st0" d="M83.4,26.8v10.9h11.4V26.8h3.1v26.2h-3.1V40.7H83.4v12.3h-3.1V26.8H83.4z"/>
	<path class="st0" d="M115.5,40.7h-9.2v9.4h10.2v2.8h-13.3V26.8H116v2.8h-9.7v8.3h9.2V40.7z"/>
	<path class="st0" d="M127.9,27.1c1.5-0.3,3.4-0.5,5.9-0.5c3,0,5.2,0.8,6.6,2.2c1.3,1.2,2.1,3.1,2.1,5.5c0,2.4-0.6,4.2-1.8,5.6
		c-1.6,1.9-4.2,2.9-7.2,2.9c-0.9,0-1.8,0-2.5-0.2v10.5h-3.1V27.1z M131,39.7c0.7,0.2,1.5,0.3,2.5,0.3c3.7,0,5.9-2,5.9-5.6
		c0-3.5-2.2-5.1-5.6-5.1c-1.3,0-2.4,0.1-2.9,0.3V39.7z"/>
	<path class="st0" d="M166.8,39.6c0,9-4.9,13.8-11,13.8c-6.2,0-10.6-5.4-10.6-13.3c0-8.3,4.7-13.7,11-13.7
		C162.6,26.3,166.8,31.8,166.8,39.6z M148.4,40c0,5.6,2.7,10.6,7.5,10.6c4.8,0,7.6-4.9,7.6-10.9c0-5.2-2.5-10.6-7.5-10.6
		C151,29.1,148.4,34.3,148.4,40z"/>
	<path class="st0" d="M191,39.6c0,9-4.9,13.8-11,13.8c-6.2,0-10.6-5.4-10.6-13.3c0-8.3,4.7-13.7,11-13.7
		C186.8,26.3,191,31.8,191,39.6z M172.6,40c0,5.6,2.7,10.6,7.5,10.6c4.8,0,7.6-4.9,7.6-10.9c0-5.2-2.5-10.6-7.5-10.6
		C175.1,29.1,172.6,34.3,172.6,40z"/>
	<path class="st0" d="M194.9,26.8h3.1v23.3h10.1v2.8h-13.2V26.8z"/>
	<path class="st0" d="M235.4,52.1c-1.1,0.6-3.4,1.2-6.2,1.2c-6.7,0-11.7-4.7-11.7-13.2c0-8.2,5-13.7,12.3-13.7
		c2.9,0,4.8,0.7,5.6,1.2l-0.7,2.8c-1.2-0.6-2.8-1.1-4.8-1.1c-5.5,0-9.2,3.9-9.2,10.8c0,6.4,3.3,10.5,9.1,10.5c1.9,0,3.8-0.4,5-1.1
		L235.4,52.1z"/>
	<path class="st0" d="M242.3,26.8v10.9h11.4V26.8h3.1v26.2h-3.1V40.7h-11.4v12.3h-3.1V26.8H242.3z"/>
	<path class="st0" d="M266,44.7l-2.5,8.2h-3.2l8-26.2h3.7l8.1,26.2h-3.3l-2.5-8.2H266z M273.7,42.1l-2.3-7.5
		c-0.5-1.7-0.9-3.3-1.2-4.8h-0.1c-0.4,1.6-0.7,3.1-1.2,4.7l-2.3,7.6H273.7z"/>
	<path class="st0" d="M303.4,41.4c-0.2-3.6-0.4-8-0.4-11.3h-0.1c-0.8,3.1-1.8,6.3-3,9.9l-4.2,12.7h-2.3l-3.8-12.5
		c-1.1-3.7-2.1-7.1-2.7-10.2h-0.1c-0.1,3.3-0.2,7.6-0.5,11.6l-0.6,11.2h-2.9l1.6-26.2h3.9l4,12.6c1,3.2,1.8,6.1,2.4,8.8h0.1
		c0.6-2.6,1.4-5.5,2.5-8.8l4.2-12.6h3.9l1.5,26.2h-3L303.4,41.4z"/>
	<path class="st0" d="M311.7,27.1c1.5-0.3,3.4-0.5,5.9-0.5c3,0,5.2,0.8,6.6,2.2c1.3,1.2,2.1,3.1,2.1,5.5c0,2.4-0.6,4.2-1.8,5.6
		c-1.6,1.9-4.2,2.9-7.2,2.9c-0.9,0-1.8,0-2.5-0.2v10.5h-3.1V27.1z M314.7,39.7c0.7,0.2,1.5,0.3,2.5,0.3c3.7,0,5.9-2,5.9-5.6
		c0-3.5-2.2-5.1-5.6-5.1c-1.3,0-2.4,0.1-2.9,0.3V39.7z"/>
	<path class="st0" d="M329.9,48.8c1.4,0.9,3.4,1.7,5.5,1.7c3.1,0,4.9-1.8,4.9-4.5c0-2.4-1.3-3.8-4.5-5.2c-3.9-1.5-6.2-3.7-6.2-7.4
		c0-4.1,3.1-7.1,7.6-7.1c2.4,0,4.2,0.6,5.2,1.3l-0.8,2.8c-0.8-0.5-2.4-1.2-4.5-1.2c-3.2,0-4.5,2.1-4.5,3.9c0,2.4,1.4,3.6,4.7,5
		c4,1.7,6,3.8,6,7.7c0,4-2.7,7.5-8.3,7.5c-2.3,0-4.8-0.7-6-1.7L329.9,48.8z"/>
</g>
<g>
	<path class="st0" d="M35.2,29.9c1-1.2,1.9-2.3,2.7-3.4l-3.5,2.8l-3.5-2.8c0.9,1.1,1.8,2.3,2.7,3.4L4.3,53.3c1.5,0,2.9,0,4.4,0
		c4.6-3,9.9-6.8,15.3-11.7c4-3.7,7.5-7.3,10.4-10.7c2.9,3.4,6.3,7.1,10.4,10.7c5.4,4.9,10.7,8.7,15.3,11.7c1.5,0,2.9,0,4.4,0
		L35.2,29.9z"/>
	<g>
		<rect x="36.7" y="39.9" class="st0" width="4.4" height="4.2"/>
		<rect x="29.5" y="39.9" class="st0" width="4.4" height="4.2"/>
		<rect x="29.5" y="46.8" class="st0" width="4.4" height="4.2"/>
		<rect x="36.7" y="46.8" class="st0" width="4.4" height="4.2"/>
	</g>
</g>
<g>
	<path class="st0" d="M160.4,60.3c0.5-0.1,1.3-0.2,2.2-0.2c1.2,0,1.9,0.2,2.5,0.6c0.5,0.3,0.8,0.8,0.8,1.5c0,0.8-0.6,1.5-1.5,1.8v0
		c0.9,0.2,1.9,0.9,1.9,2.1c0,0.7-0.3,1.3-0.8,1.7c-0.6,0.5-1.7,0.8-3.2,0.8c-0.8,0-1.4,0-1.8-0.1V60.3z M161.6,63.7h1.1
		c1.2,0,2-0.6,2-1.4c0-1-0.8-1.4-2-1.4c-0.5,0-0.9,0-1,0.1V63.7z M161.6,67.7c0.2,0,0.6,0,1,0c1.2,0,2.3-0.4,2.3-1.6
		c0-1.1-1.1-1.6-2.4-1.6h-1V67.7z"/>
	<path class="st0" d="M168.4,65.8c0,1.5,1.1,2.1,2.2,2.1c0.9,0,1.4-0.1,1.8-0.3l0.2,0.8c-0.4,0.2-1.1,0.4-2.2,0.4
		c-2,0-3.2-1.2-3.2-3s1.2-3.2,3.1-3.2c2.1,0,2.7,1.7,2.7,2.8c0,0.2,0,0.4,0,0.5H168.4z M171.9,65c0-0.7-0.3-1.8-1.7-1.8
		c-1.2,0-1.7,1-1.8,1.8H171.9z"/>
	<path class="st0" d="M179.2,68.3c-0.3,0.1-1,0.3-1.9,0.3c-2,0-3.3-1.2-3.3-3.1c0-1.8,1.4-3.2,3.5-3.2c0.7,0,1.3,0.2,1.7,0.3
		l-0.3,0.8c-0.3-0.1-0.7-0.3-1.4-0.3c-1.5,0-2.3,1-2.3,2.3c0,1.4,1,2.2,2.3,2.2c0.7,0,1.1-0.2,1.5-0.3L179.2,68.3z"/>
	<path class="st0" d="M184.2,68.6l-0.1-0.8h0c-0.4,0.5-1.1,0.9-2,0.9c-1.3,0-2-0.9-2-1.7c0-1.4,1.4-2.2,3.9-2.2v-0.1
		c0-0.5-0.1-1.4-1.5-1.4c-0.6,0-1.2,0.2-1.7,0.4l-0.3-0.7c0.5-0.3,1.3-0.5,2.2-0.5c2,0,2.5,1.2,2.5,2.5v2.2c0,0.5,0,1,0.1,1.4H184.2
		z M184,65.5c-1.3,0-2.8,0.2-2.8,1.3c0,0.7,0.5,1,1.1,1c0.9,0,1.4-0.5,1.6-1c0-0.1,0.1-0.2,0.1-0.3V65.5z"/>
	<path class="st0" d="M192.6,66.9c0,0.6,0,1.2,0.1,1.6h-1.1l-0.1-1h0c-0.3,0.5-1,1.1-2.2,1.1c-1,0-2.3-0.5-2.3-2.6v-3.5h1.2v3.3
		c0,1.1,0.4,1.9,1.5,1.9c0.8,0,1.4-0.5,1.6-1c0.1-0.2,0.1-0.4,0.1-0.6v-3.7h1.2V66.9z"/>
	<path class="st0" d="M194.4,67.4c0.4,0.2,1,0.4,1.6,0.4c0.9,0,1.3-0.4,1.3-0.9c0-0.5-0.3-0.8-1.2-1.1c-1.2-0.4-1.7-1-1.7-1.7
		c0-1,0.9-1.8,2.3-1.8c0.7,0,1.2,0.2,1.6,0.4l-0.3,0.8c-0.3-0.1-0.7-0.3-1.3-0.3c-0.7,0-1.1,0.4-1.1,0.8c0,0.5,0.4,0.7,1.2,1
		c1.1,0.4,1.7,0.9,1.7,1.8c0,1.1-0.9,1.8-2.4,1.8c-0.7,0-1.4-0.2-1.8-0.4L194.4,67.4z"/>
	<path class="st0" d="M200.6,65.8c0,1.5,1.1,2.1,2.2,2.1c0.9,0,1.4-0.1,1.8-0.3l0.2,0.8c-0.4,0.2-1.1,0.4-2.2,0.4
		c-2,0-3.2-1.2-3.2-3s1.2-3.2,3.1-3.2c2.1,0,2.7,1.7,2.7,2.8c0,0.2,0,0.4,0,0.5H200.6z M204,65c0-0.7-0.3-1.8-1.7-1.8
		c-1.2,0-1.7,1-1.8,1.8H204z"/>
	<path class="st0" d="M209.6,60.3c0.6-0.1,1.4-0.2,2.3-0.2c1.3,0,2.1,0.2,2.6,0.7c0.5,0.4,0.7,0.9,0.7,1.6c0,1.1-0.8,1.8-1.7,2.1v0
		c0.7,0.2,1.1,0.8,1.3,1.7c0.3,1.2,0.5,2,0.7,2.3h-1.2c-0.1-0.2-0.4-1-0.6-2c-0.3-1.2-0.8-1.6-1.8-1.6h-1.1v3.6h-1.2V60.3z
		 M210.8,64.1h1.2c1.3,0,2.1-0.6,2.1-1.6c0-1.1-0.9-1.5-2.1-1.6c-0.6,0-1,0-1.2,0.1V64.1z"/>
	<path class="st0" d="M217.5,65.8c0,1.5,1.1,2.1,2.2,2.1c0.9,0,1.4-0.1,1.8-0.3l0.2,0.8c-0.4,0.2-1.1,0.4-2.2,0.4
		c-2,0-3.2-1.2-3.2-3s1.2-3.2,3.1-3.2c2.1,0,2.7,1.7,2.7,2.8c0,0.2,0,0.4,0,0.5H217.5z M221,65c0-0.7-0.3-1.8-1.7-1.8
		c-1.2,0-1.7,1-1.8,1.8H221z"/>
	<path class="st0" d="M223.7,59.8h1.2v8.8h-1.2V59.8z"/>
	<path class="st0" d="M228.2,60.9c0,0.4-0.3,0.7-0.8,0.7c-0.4,0-0.7-0.3-0.7-0.7c0-0.4,0.3-0.7,0.7-0.7
		C227.9,60.2,228.2,60.5,228.2,60.9z M226.8,68.6v-6h1.2v6H226.8z"/>
	<path class="st0" d="M233.6,68.6l-0.1-0.8h0c-0.4,0.5-1.1,0.9-2,0.9c-1.3,0-2-0.9-2-1.7c0-1.4,1.4-2.2,3.9-2.2v-0.1
		c0-0.5-0.1-1.4-1.5-1.4c-0.6,0-1.2,0.2-1.7,0.4L230,63c0.5-0.3,1.3-0.5,2.2-0.5c2,0,2.5,1.2,2.5,2.5v2.2c0,0.5,0,1,0.1,1.4H233.6z
		 M233.5,65.5c-1.3,0-2.8,0.2-2.8,1.3c0,0.7,0.5,1,1.1,1c0.9,0,1.4-0.5,1.6-1c0-0.1,0.1-0.2,0.1-0.3V65.5z"/>
	<path class="st0" d="M236.5,68.6c0-0.4,0.1-1,0.1-1.5v-7.2h1.2v3.8h0c0.4-0.7,1.2-1.1,2.2-1.1c1.6,0,2.8,1.2,2.8,3.1
		c0,2.1-1.5,3.2-2.9,3.2c-0.9,0-1.7-0.3-2.2-1.1h0l-0.1,1H236.5z M237.7,66.2c0,0.1,0,0.3,0.1,0.4c0.2,0.8,0.9,1.3,1.8,1.3
		c1.2,0,2-0.9,2-2.3c0-1.2-0.7-2.2-1.9-2.2c-0.8,0-1.6,0.5-1.8,1.3c0,0.1-0.1,0.3-0.1,0.4V66.2z"/>
	<path class="st0" d="M245.6,60.9c0,0.4-0.3,0.7-0.8,0.7c-0.4,0-0.7-0.3-0.7-0.7c0-0.4,0.3-0.7,0.7-0.7
		C245.3,60.2,245.6,60.5,245.6,60.9z M244.2,68.6v-6h1.2v6H244.2z"/>
	<path class="st0" d="M247.4,59.8h1.2v8.8h-1.2V59.8z"/>
	<path class="st0" d="M251.9,60.9c0,0.4-0.3,0.7-0.8,0.7c-0.4,0-0.7-0.3-0.7-0.7c0-0.4,0.3-0.7,0.7-0.7
		C251.6,60.2,251.9,60.5,251.9,60.9z M250.6,68.6v-6h1.2v6H250.6z"/>
	<path class="st0" d="M255.2,60.9v1.7h1.7v0.8h-1.7v3.2c0,0.7,0.2,1.2,0.9,1.2c0.3,0,0.5,0,0.7-0.1l0.1,0.8
		c-0.2,0.1-0.6,0.1-1.1,0.1c-0.6,0-1-0.2-1.3-0.5c-0.3-0.3-0.5-0.9-0.5-1.6v-3.3h-1v-0.8h1v-1.4L255.2,60.9z"/>
	<path class="st0" d="M258.8,62.6l1.4,3.5c0.1,0.4,0.3,0.9,0.4,1.2h0c0.1-0.4,0.3-0.8,0.4-1.2l1.3-3.5h1.3l-1.8,4.3
		c-0.9,2.1-1.4,3.1-2.2,3.7c-0.6,0.5-1.2,0.7-1.5,0.7l-0.3-0.9c0.3-0.1,0.7-0.3,1-0.5c0.3-0.2,0.7-0.7,1-1.2
		c0.1-0.1,0.1-0.2,0.1-0.3s0-0.1-0.1-0.3l-2.4-5.5H258.8z"/>
	<path class="st0" d="M275.3,64.9c-0.1-1.2-0.1-2.6-0.1-3.6h0c-0.3,1-0.7,2-1.2,3.2l-1.6,4h-0.9l-1.5-4c-0.4-1.2-0.8-2.3-1.1-3.2h0
		c0,1-0.1,2.4-0.2,3.7l-0.2,3.6h-1.1l0.6-8.3h1.5l1.6,4c0.4,1,0.7,1.9,0.9,2.8h0c0.2-0.8,0.6-1.8,1-2.8l1.6-4h1.5l0.6,8.3h-1.2
		L275.3,64.9z"/>
	<path class="st0" d="M282.2,68.6l-0.1-0.8h0c-0.4,0.5-1.1,0.9-2,0.9c-1.3,0-2-0.9-2-1.7c0-1.4,1.4-2.2,3.9-2.2v-0.1
		c0-0.5-0.1-1.4-1.5-1.4c-0.6,0-1.2,0.2-1.7,0.4l-0.3-0.7c0.5-0.3,1.3-0.5,2.2-0.5c2,0,2.5,1.2,2.5,2.5v2.2c0,0.5,0,1,0.1,1.4H282.2
		z M282,65.5c-1.3,0-2.8,0.2-2.8,1.3c0,0.7,0.5,1,1.1,1c0.9,0,1.4-0.5,1.6-1c0-0.1,0.1-0.2,0.1-0.3V65.5z"/>
	<path class="st0" d="M286.5,60.9v1.7h1.7v0.8h-1.7v3.2c0,0.7,0.2,1.2,0.9,1.2c0.3,0,0.5,0,0.7-0.1l0.1,0.8
		c-0.2,0.1-0.6,0.1-1.1,0.1c-0.6,0-1-0.2-1.3-0.5c-0.3-0.3-0.5-0.9-0.5-1.6v-3.3h-1v-0.8h1v-1.4L286.5,60.9z"/>
	<path class="st0" d="M290.9,60.9v1.7h1.7v0.8h-1.7v3.2c0,0.7,0.2,1.2,0.9,1.2c0.3,0,0.5,0,0.7-0.1l0.1,0.8
		c-0.2,0.1-0.6,0.1-1.1,0.1c-0.6,0-1-0.2-1.3-0.5c-0.3-0.3-0.5-0.9-0.5-1.6v-3.3h-1v-0.8h1v-1.4L290.9,60.9z"/>
	<path class="st0" d="M294.6,65.8c0,1.5,1.1,2.1,2.2,2.1c0.9,0,1.4-0.1,1.8-0.3l0.2,0.8c-0.4,0.2-1.1,0.4-2.2,0.4
		c-2,0-3.2-1.2-3.2-3s1.2-3.2,3.1-3.2c2.1,0,2.7,1.7,2.7,2.8c0,0.2,0,0.4,0,0.5H294.6z M298.1,65c0-0.7-0.3-1.8-1.7-1.8
		c-1.2,0-1.7,1-1.8,1.8H298.1z"/>
	<path class="st0" d="M300.7,64.4c0-0.7,0-1.3-0.1-1.9h1l0,1.2h0.1c0.3-0.8,1-1.3,1.8-1.3c0.1,0,0.2,0,0.3,0v1c-0.1,0-0.2,0-0.4,0
		c-0.8,0-1.4,0.6-1.6,1.4c0,0.1-0.1,0.3-0.1,0.5v3.2h-1.2V64.4z"/>
	<path class="st0" d="M304.9,67.4c0.4,0.2,1,0.4,1.6,0.4c0.9,0,1.3-0.4,1.3-0.9c0-0.5-0.3-0.8-1.2-1.1c-1.2-0.4-1.7-1-1.7-1.7
		c0-1,0.9-1.8,2.3-1.8c0.7,0,1.2,0.2,1.6,0.4l-0.3,0.8c-0.3-0.1-0.7-0.3-1.3-0.3c-0.7,0-1.1,0.4-1.1,0.8c0,0.5,0.4,0.7,1.2,1
		c1.1,0.4,1.7,0.9,1.7,1.8c0,1.1-0.9,1.8-2.4,1.8c-0.7,0-1.4-0.2-1.8-0.4L304.9,67.4z"/>
	<path class="st0" d="M321.1,64.9c-0.1-1.2-0.1-2.6-0.1-3.6h0c-0.3,1-0.7,2-1.2,3.2l-1.6,4h-0.9l-1.5-4c-0.4-1.2-0.8-2.3-1.1-3.2h0
		c0,1-0.1,2.4-0.2,3.7l-0.2,3.6h-1.1l0.6-8.3h1.5l1.6,4c0.4,1,0.7,1.9,0.9,2.8h0c0.2-0.8,0.6-1.8,1-2.8l1.6-4h1.5l0.6,8.3h-1.2
		L321.1,64.9z"/>
	<path class="st0" d="M330.2,65.5c0,2.2-1.7,3.2-3.3,3.2c-1.8,0-3.1-1.2-3.1-3.1c0-2,1.4-3.2,3.2-3.2
		C328.9,62.4,330.2,63.7,330.2,65.5z M325,65.6c0,1.3,0.8,2.3,2,2.3c1.1,0,2-1,2-2.3c0-1-0.6-2.3-2-2.3S325,64.4,325,65.6z"/>
	<path class="st0" d="M331.6,67.4c0.4,0.2,1,0.4,1.6,0.4c0.9,0,1.3-0.4,1.3-0.9c0-0.5-0.3-0.8-1.2-1.1c-1.2-0.4-1.7-1-1.7-1.7
		c0-1,0.9-1.8,2.3-1.8c0.7,0,1.2,0.2,1.6,0.4l-0.3,0.8c-0.3-0.1-0.7-0.3-1.3-0.3c-0.7,0-1.1,0.4-1.1,0.8c0,0.5,0.4,0.7,1.2,1
		c1.1,0.4,1.7,0.9,1.7,1.8c0,1.1-0.9,1.8-2.5,1.8c-0.7,0-1.4-0.2-1.8-0.4L331.6,67.4z"/>
	<path class="st0" d="M338.5,60.9v1.7h1.7v0.8h-1.7v3.2c0,0.7,0.2,1.2,0.9,1.2c0.3,0,0.5,0,0.7-0.1l0.1,0.8
		c-0.2,0.1-0.6,0.1-1.1,0.1c-0.6,0-1-0.2-1.3-0.5c-0.3-0.3-0.5-0.9-0.5-1.6v-3.3h-1v-0.8h1v-1.4L338.5,60.9z"/>
	<path class="st0" d="M341.2,67.9c0-0.5,0.3-0.8,0.8-0.8s0.8,0.3,0.8,0.8c0,0.4-0.3,0.8-0.8,0.8C341.6,68.7,341.2,68.4,341.2,67.9z"
		/>
</g>
<rect x="4.3" y="59.8" class="st0" width="151.6" height="8.9"/>
</svg>
