<?xml version="1.0" encoding="utf-8"?>
<!-- Generator: Adobe Illustrator 25.1.0, SVG Export Plug-In . SVG Version: 6.00 Build 0)  -->
<svg version="1.1" id="Layer_1" xmlns="http://www.w3.org/2000/svg" xmlns:xlink="http://www.w3.org/1999/xlink" x="0px" y="0px"
	 viewBox="0 0 1024 1024" style="enable-background:new 0 0 1024 1024;" xml:space="preserve">
<style type="text/css">
	.st0{fill:#FFC835;}
</style>
<g>
	<rect x="668" y="481.6" width="34.1" height="31.1"/>
	<rect x="609" y="481.6" width="34.1" height="31.1"/>
	<rect x="609" y="538.7" width="34.1" height="31.1"/>
	<rect x="668" y="538.7" width="34.1" height="31.1"/>
</g>
<g>
	<rect x="371.4" y="481.6" width="34.1" height="31.1"/>
	<rect x="312.4" y="481.6" width="34.1" height="31.1"/>
	<rect x="312.4" y="538.7" width="34.1" height="31.1"/>
	<rect x="371.4" y="538.7" width="34.1" height="31.1"/>
</g>
<g>
	<g>
		<circle class="st0" cx="512" cy="552.4" r="425"/>
		<polygon points="846.5,688.3 703.1,338.3 511.8,430.3 320.4,338.3 177,688.3 350.1,405.4 493.2,439.2 457.4,456.4 457.4,456.4 
			515.4,660.3 566.1,456.4 530.3,439.2 673.4,405.4 		"/>
	</g>
	<path d="M512,127.4c-234.7,0-425,190.3-425,425s190.3,425,425,425s425-190.3,425-425S746.7,127.4,512,127.4z M509.9,949.2
		c-220.9,0-400-179.1-400-400s179.1-400,400-400s400,179.1,400,400S730.8,949.2,509.9,949.2z"/>
</g>
</svg>
