<?xml version="1.0" encoding="utf-8"?>
<!-- Generator: Adobe Illustrator 25.1.0, SVG Export Plug-In . SVG Version: 6.00 Build 0)  -->
<svg version="1.1" id="Layer_1" xmlns="http://www.w3.org/2000/svg" xmlns:xlink="http://www.w3.org/1999/xlink" x="0px" y="0px"
	 viewBox="0 0 348 112" style="enable-background:new 0 0 348 112;" xml:space="preserve">
<style type="text/css">
	.st0{fill:#010101;}
	.st1{fill:#FFFFFF;}
</style>
<g>
	<g>
		<path class="st0" d="M243.8,237.4l-1.4,5.3h-0.7L240,236h0.8l1.3,5.4l0,0l1.4-5.4h0.8l1.4,5.4l0,0l1.3-5.4h0.8l-1.7,6.7h-0.7
			L243.8,237.4L243.8,237.4z"/>
		<path class="st0" d="M250.9,241.3h0.7c-0.1,0.4-0.3,0.8-0.6,1c-0.3,0.3-0.8,0.4-1.3,0.4c-0.6,0-1.2-0.2-1.5-0.7
			c-0.4-0.4-0.6-1-0.6-1.8c0-0.7,0.2-1.4,0.6-1.8c0.4-0.4,0.9-0.7,1.5-0.7s1.1,0.2,1.4,0.6c0.4,0.4,0.5,1,0.5,1.7v0.3h-3.2l0,0
			c0,0.5,0.1,0.8,0.4,1.1c0.3,0.3,0.6,0.4,1,0.4c0.3,0,0.5-0.1,0.7-0.2C250.7,241.7,250.9,241.5,250.9,241.3z M249.8,238.5
			c-0.4,0-0.6,0.1-0.9,0.4c-0.2,0.3-0.4,0.6-0.4,1h2.5c0-0.4-0.1-0.7-0.3-1C250.4,238.6,250.1,238.5,249.8,238.5z"/>
		<path class="st0" d="M257.3,241.3h0.7c-0.1,0.4-0.3,0.8-0.6,1c-0.3,0.3-0.8,0.4-1.3,0.4c-0.6,0-1.2-0.2-1.5-0.7
			c-0.4-0.4-0.6-1-0.6-1.8c0-0.7,0.2-1.4,0.6-1.8c0.4-0.5,0.9-0.7,1.5-0.7s1.1,0.2,1.4,0.6c0.4,0.4,0.5,1,0.5,1.7v0.3h-3.2l0,0
			c0,0.5,0.1,0.8,0.4,1.1c0.3,0.3,0.6,0.4,1,0.4c0.3,0,0.5-0.1,0.7-0.2C257.1,241.7,257.3,241.5,257.3,241.3z M256.1,238.5
			c-0.4,0-0.6,0.1-0.9,0.4c-0.2,0.3-0.4,0.6-0.4,1h2.5c0-0.4-0.1-0.7-0.3-1S256.5,238.5,256.1,238.5z"/>
		<path class="st0" d="M260.4,240.9L260.4,240.9l-1.1,1.8h-0.8l1.5-2.4l-1.5-2.4h0.8l1.1,1.8l0,0l1.1-1.8h0.8l-1.5,2.4l1.5,2.4h-0.8
			L260.4,240.9z"/>
		<path class="st0" d="M266.7,239.5H266c-0.1-0.3-0.2-0.5-0.4-0.7s-0.5-0.3-0.8-0.3c-0.4,0-0.7,0.2-1,0.5c-0.2,0.3-0.4,0.8-0.4,1.3
			s0.1,1,0.4,1.3c0.2,0.3,0.6,0.5,1,0.5c0.3,0,0.6-0.1,0.8-0.2c0.2-0.2,0.3-0.4,0.4-0.7h0.7c-0.1,0.5-0.3,0.9-0.6,1.2
			c-0.3,0.3-0.8,0.5-1.3,0.5c-0.6,0-1.1-0.2-1.5-0.7c-0.4-0.4-0.6-1-0.6-1.8s0.2-1.4,0.6-1.8c0.4-0.5,0.9-0.7,1.5-0.7
			c0.5,0,1,0.2,1.3,0.5C266.4,238.6,266.6,239,266.7,239.5z"/>
		<path class="st0" d="M270.4,241.3h0.7c-0.1,0.4-0.3,0.8-0.6,1c-0.3,0.3-0.8,0.4-1.3,0.4c-0.6,0-1.2-0.2-1.5-0.7
			c-0.4-0.4-0.6-1-0.6-1.8c0-0.7,0.2-1.4,0.6-1.8c0.4-0.5,0.9-0.7,1.5-0.7s1.1,0.2,1.4,0.6c0.4,0.4,0.5,1,0.5,1.7v0.3h-3.2l0,0
			c0,0.5,0.1,0.8,0.4,1.1c0.3,0.3,0.6,0.4,1,0.4c0.3,0,0.5-0.1,0.7-0.2C270.2,241.7,270.3,241.5,270.4,241.3z M269.2,238.5
			c-0.4,0-0.6,0.1-0.9,0.4c-0.2,0.3-0.4,0.6-0.4,1h2.5c0-0.4-0.1-0.7-0.3-1C269.8,238.6,269.5,238.5,269.2,238.5z"/>
		<path class="st0" d="M274.9,241.3h0.7c-0.1,0.4-0.3,0.8-0.6,1c-0.3,0.3-0.8,0.4-1.3,0.4c-0.6,0-1.2-0.2-1.5-0.7
			c-0.4-0.4-0.6-1-0.6-1.8c0-0.7,0.2-1.4,0.6-1.8c0.4-0.4,0.9-0.7,1.5-0.7s1.1,0.2,1.4,0.6c0.4,0.4,0.5,1,0.5,1.7v0.3h-3.2l0,0
			c0,0.5,0.1,0.8,0.4,1.1c0.3,0.3,0.6,0.4,1,0.4c0.3,0,0.5-0.1,0.7-0.2C274.7,241.7,274.9,241.5,274.9,241.3z M273.7,238.5
			c-0.4,0-0.6,0.1-0.9,0.4c-0.2,0.3-0.4,0.6-0.4,1h2.5c0-0.4-0.1-0.7-0.3-1C274.4,238.6,274.1,238.5,273.7,238.5z"/>
		<path class="st0" d="M278.2,242.8c-0.6,0-1-0.2-1.4-0.7s-0.5-1.1-0.5-1.8s0.2-1.3,0.5-1.8c0.4-0.5,0.8-0.7,1.4-0.7
			c0.3,0,0.6,0.1,0.9,0.2c0.3,0.2,0.4,0.4,0.6,0.6l0,0V236h0.8v6.7h-0.7v-0.8l0,0c-0.1,0.3-0.3,0.5-0.6,0.7
			C278.8,242.7,278.5,242.8,278.2,242.8z M278.3,238.5c-0.4,0-0.7,0.2-1,0.5c-0.2,0.3-0.4,0.8-0.4,1.3s0.1,1,0.4,1.3
			c0.2,0.3,0.6,0.5,1,0.5s0.7-0.2,0.9-0.5c0.2-0.3,0.4-0.8,0.4-1.3s-0.1-1-0.4-1.3C279,238.7,278.7,238.5,278.3,238.5z"/>
		<path class="st0" d="M283.6,244.5c-0.1,0-0.2,0-0.3,0v-0.7c0.1,0,0.2,0,0.3,0c0.2,0,0.4-0.1,0.5-0.2c0.1-0.1,0.2-0.3,0.3-0.6
			l0.1-0.3l-1.7-4.8h0.8l1.3,4l0,0l1.3-4h0.8l-1.8,5.1c-0.2,0.6-0.4,0.9-0.6,1.1C284.3,244.4,284,244.5,283.6,244.5z"/>
		<path class="st0" d="M289.3,242.8c-0.6,0-1.1-0.2-1.5-0.7c-0.4-0.4-0.6-1.1-0.6-1.8c0-0.8,0.2-1.4,0.6-1.8
			c0.4-0.4,0.9-0.7,1.5-0.7s1.1,0.2,1.5,0.7c0.4,0.4,0.6,1,0.6,1.8s-0.2,1.4-0.6,1.8C290.4,242.5,289.9,242.8,289.3,242.8z
			 M288.3,241.6c0.2,0.3,0.6,0.5,1,0.5s0.7-0.2,1-0.5c0.2-0.3,0.4-0.7,0.4-1.3s-0.1-1-0.4-1.3c-0.2-0.3-0.6-0.5-1-0.5
			s-0.7,0.2-1,0.5c-0.2,0.3-0.4,0.7-0.4,1.3C288,240.8,288.1,241.3,288.3,241.6z"/>
		<path class="st0" d="M295.9,237.9v4.8h-0.7v-0.8l0,0c-0.3,0.6-0.8,0.9-1.4,0.9c-0.5,0-0.9-0.2-1.2-0.5c-0.3-0.3-0.4-0.7-0.4-1.3
			v-3.1h0.8v3c0,0.8,0.3,1.2,1,1.2c0.4,0,0.7-0.1,0.9-0.4c0.2-0.2,0.3-0.6,0.3-1v-2.8C295.2,237.9,295.9,237.9,295.9,237.9z"/>
		<path class="st0" d="M296.9,242.7v-4.8h0.7v0.8l0,0c0.1-0.3,0.2-0.5,0.4-0.6c0.2-0.2,0.4-0.2,0.7-0.2c0.1,0,0.2,0,0.3,0v0.8
			c-0.1,0-0.2,0-0.4,0c-0.3,0-0.5,0.1-0.7,0.3c-0.2,0.2-0.3,0.5-0.3,0.8v3h-0.7V242.7z"/>
		<path class="st0" d="M304.4,241.3h0.7c-0.1,0.4-0.3,0.8-0.6,1c-0.3,0.3-0.8,0.4-1.3,0.4c-0.6,0-1.2-0.2-1.5-0.7
			c-0.4-0.4-0.6-1-0.6-1.8c0-0.7,0.2-1.4,0.6-1.8c0.4-0.4,0.9-0.7,1.5-0.7s1.1,0.2,1.4,0.6c0.4,0.4,0.5,1,0.5,1.7v0.3h-3.2l0,0
			c0,0.5,0.1,0.8,0.4,1.1c0.3,0.3,0.6,0.4,1,0.4c0.3,0,0.5-0.1,0.7-0.2C304.2,241.7,304.4,241.5,304.4,241.3z M303.2,238.5
			c-0.4,0-0.6,0.1-0.9,0.4c-0.2,0.3-0.4,0.6-0.4,1h2.5c0-0.4-0.1-0.7-0.3-1C303.9,238.6,303.6,238.5,303.2,238.5z"/>
		<path class="st0" d="M307.5,240.9L307.5,240.9l-1.1,1.8h-0.8l1.5-2.4l-1.5-2.4h0.8l1.1,1.8l0,0l1.1-1.8h0.8l-1.5,2.4l1.5,2.4h-0.8
			L307.5,240.9z"/>
		<path class="st0" d="M312.3,237.8c0.6,0,1,0.2,1.4,0.7s0.5,1.1,0.5,1.8c0,0.7-0.2,1.3-0.5,1.8c-0.4,0.5-0.8,0.7-1.4,0.7
			c-0.3,0-0.6-0.1-0.9-0.2c-0.3-0.2-0.4-0.4-0.6-0.6l0,0v2.4H310V238h0.7v0.8l0,0c0.1-0.3,0.3-0.5,0.6-0.7
			C311.7,237.9,312,237.8,312.3,237.8z M312.1,242.1c0.4,0,0.7-0.2,1-0.5c0.2-0.3,0.4-0.8,0.4-1.3s-0.1-1-0.4-1.3
			c-0.2-0.3-0.6-0.5-1-0.5s-0.7,0.2-0.9,0.5c-0.2,0.3-0.4,0.8-0.4,1.3s0.1,1,0.4,1.3C311.4,241.9,311.7,242.1,312.1,242.1z"/>
		<path class="st0" d="M318,241.3h0.7c-0.1,0.4-0.3,0.8-0.6,1c-0.3,0.3-0.8,0.4-1.3,0.4c-0.6,0-1.2-0.2-1.5-0.7
			c-0.4-0.4-0.6-1-0.6-1.8c0-0.7,0.2-1.4,0.6-1.8c0.4-0.4,0.9-0.7,1.5-0.7s1.1,0.2,1.4,0.6c0.4,0.4,0.5,1,0.5,1.7v0.3h-3.2l0,0
			c0,0.5,0.1,0.8,0.4,1.1c0.2,0.3,0.6,0.4,1,0.4c0.3,0,0.5-0.1,0.7-0.2C317.8,241.7,317.9,241.5,318,241.3z M316.8,238.5
			c-0.4,0-0.6,0.1-0.9,0.4c-0.2,0.3-0.4,0.6-0.4,1h2.5c0-0.4-0.1-0.7-0.3-1C317.4,238.6,317.1,238.5,316.8,238.5z"/>
		<path class="st0" d="M323.3,239.5h-0.7c-0.1-0.3-0.2-0.5-0.4-0.7c-0.2-0.2-0.5-0.3-0.8-0.3c-0.4,0-0.7,0.2-1,0.5
			c-0.2,0.3-0.4,0.8-0.4,1.3s0.1,1,0.4,1.3c0.2,0.3,0.6,0.5,1,0.5c0.3,0,0.6-0.1,0.8-0.2c0.2-0.2,0.3-0.4,0.4-0.7h0.7
			c-0.1,0.5-0.3,0.9-0.6,1.2c-0.3,0.3-0.8,0.5-1.3,0.5c-0.6,0-1.1-0.2-1.5-0.7c-0.4-0.4-0.6-1-0.6-1.8s0.2-1.4,0.6-1.8
			c0.4-0.5,0.9-0.7,1.5-0.7c0.5,0,1,0.2,1.3,0.5C323,238.6,323.2,239,323.3,239.5z"/>
		<path class="st0" d="M324.2,236.7h0.8v1.2h0.9v0.7H325v2.8c0,0.2,0,0.4,0.1,0.5c0.1,0.1,0.2,0.2,0.4,0.2c0.1,0,0.2,0,0.3,0v0.7
			c-0.1,0-0.3,0-0.5,0c-0.4,0-0.7-0.1-0.9-0.3c-0.2-0.2-0.3-0.5-0.3-1v-2.9h-0.7v-0.7h0.7v-1.2H324.2z"/>
		<path class="st0" d="M327.9,242.8c-0.4,0-0.8-0.1-1.1-0.4s-0.4-0.6-0.4-1c0-0.4,0.1-0.7,0.4-1c0.3-0.2,0.7-0.4,1.2-0.4l1.3-0.1
			v-0.4c0-0.3-0.1-0.5-0.3-0.7c-0.2-0.2-0.4-0.2-0.7-0.2c-0.3,0-0.5,0.1-0.7,0.2c-0.2,0.1-0.3,0.3-0.3,0.6h-0.7
			c0-0.4,0.2-0.8,0.5-1.1c0.3-0.3,0.7-0.4,1.3-0.4c0.5,0,1,0.1,1.3,0.4s0.5,0.7,0.5,1.1v3.3h-0.8v-0.8l0,0c-0.1,0.3-0.3,0.5-0.6,0.7
			C328.5,242.7,328.2,242.8,327.9,242.8z M328.1,242.1c0.4,0,0.7-0.1,0.9-0.4c0.2-0.2,0.4-0.5,0.4-0.9v-0.4l-1.2,0.1
			c-0.3,0-0.5,0.1-0.7,0.2c-0.2,0.1-0.3,0.3-0.3,0.5s0.1,0.4,0.2,0.5C327.6,242,327.8,242.1,328.1,242.1z"/>
		<path class="st0" d="M331.3,236.7h0.8v1.2h0.9v0.7h-0.9v2.8c0,0.2,0,0.4,0.1,0.5c0.1,0.1,0.2,0.2,0.4,0.2c0.1,0,0.2,0,0.3,0v0.7
			c-0.1,0-0.3,0-0.5,0c-0.4,0-0.7-0.1-0.9-0.3c-0.2-0.2-0.3-0.5-0.3-1v-2.9h-0.7v-0.7h0.7v-1.2H331.3z"/>
		<path class="st0" d="M334.2,237.1c-0.1,0-0.2,0-0.3-0.1c-0.1-0.1-0.1-0.2-0.1-0.4c0-0.1,0-0.3,0.1-0.4c0.1-0.1,0.2-0.1,0.3-0.1
			c0.1,0,0.2,0,0.3,0.1c0.1,0.1,0.1,0.2,0.1,0.4c0,0.1,0,0.3-0.1,0.4C334.4,237,334.3,237.1,334.2,237.1z M333.8,242.7v-4.8h0.8v4.8
			H333.8z"/>
		<path class="st0" d="M337.4,242.8c-0.6,0-1.1-0.2-1.5-0.7c-0.4-0.4-0.6-1.1-0.6-1.8c0-0.8,0.2-1.4,0.6-1.8
			c0.4-0.4,0.9-0.7,1.5-0.7s1.1,0.2,1.5,0.7c0.4,0.4,0.6,1,0.6,1.8s-0.2,1.4-0.6,1.8C338.5,242.5,338.1,242.8,337.4,242.8z
			 M336.5,241.6c0.2,0.3,0.6,0.5,1,0.5s0.7-0.2,1-0.5c0.2-0.3,0.4-0.7,0.4-1.3s-0.1-1-0.4-1.3c-0.2-0.3-0.6-0.5-1-0.5
			s-0.7,0.2-1,0.5c-0.2,0.3-0.4,0.7-0.4,1.3C336.1,240.8,336.2,241.3,336.5,241.6z"/>
		<path class="st0" d="M340.3,242.7v-4.8h0.7v0.8l0,0c0.1-0.3,0.3-0.5,0.6-0.6c0.2-0.1,0.5-0.2,0.9-0.2c0.5,0,0.9,0.2,1.2,0.5
			c0.3,0.3,0.4,0.7,0.4,1.3v3.1h-0.8v-3c0-0.4-0.1-0.7-0.3-0.9c-0.2-0.2-0.4-0.3-0.8-0.3s-0.6,0.1-0.9,0.4c-0.2,0.2-0.3,0.6-0.3,1
			v2.8h-0.7V242.7z"/>
		<path class="st0" d="M344.9,239.2c0-0.4,0.2-0.7,0.5-1s0.7-0.4,1.2-0.4s0.9,0.1,1.2,0.4c0.3,0.3,0.5,0.6,0.5,1h-0.7
			c0-0.2-0.1-0.4-0.3-0.5c-0.2-0.1-0.4-0.2-0.7-0.2c-0.3,0-0.5,0.1-0.7,0.2c-0.2,0.1-0.3,0.3-0.3,0.5c0,0.3,0.3,0.6,0.8,0.7l0.7,0.2
			c0.5,0.1,0.8,0.3,1,0.5s0.3,0.5,0.3,0.8c0,0.4-0.2,0.8-0.5,1c-0.3,0.3-0.8,0.4-1.3,0.4s-0.9-0.1-1.2-0.4c-0.3-0.3-0.5-0.6-0.5-1
			h0.8c0.1,0.5,0.4,0.8,1.1,0.8c0.3,0,0.5-0.1,0.7-0.2c0.2-0.1,0.3-0.3,0.3-0.5s-0.1-0.3-0.2-0.4c-0.1-0.1-0.3-0.2-0.5-0.3l-0.8-0.2
			C345.3,240.3,344.9,239.9,344.9,239.2z"/>
	</g>
	<g>
		<g>
			<g>
				<rect x="74.1" y="225.9" class="st0" width="2.3" height="2.4"/>
				<rect x="70.2" y="225.9" class="st0" width="2.3" height="2.4"/>
				<rect x="70.2" y="230.4" class="st0" width="2.3" height="2.4"/>
				<rect x="74.1" y="230.4" class="st0" width="2.3" height="2.4"/>
			</g>
			<polygon class="st0" points="89.1,244.1 78.2,212.5 63.8,220.8 49.3,212.5 38.4,244.1 51.5,218.5 62.4,221.6 59.6,223.1 
				59.6,223.1 64,241.5 67.9,223.1 65.2,221.6 76,218.5 			"/>
			<g>
				<rect x="54.5" y="225.9" class="st0" width="2.3" height="2.4"/>
				<rect x="50.6" y="225.9" class="st0" width="2.3" height="2.4"/>
				<rect x="50.6" y="230.4" class="st0" width="2.3" height="2.4"/>
				<rect x="54.5" y="230.4" class="st0" width="2.3" height="2.4"/>
			</g>
		</g>
		<g>
			<path class="st0" d="M113.1,233.2h-2.4v-15.7h-0.1l-6.5,15.6H102l-6.5-15.6h-0.1v15.7H93v-20.4h3l7,17h0.1l7-17h3V233.2z"/>
			<path class="st0" d="M119.6,212.8v13.1c0,1.6,0.5,2.9,1.5,3.8c1,1,2.3,1.5,4.1,1.5c1.7,0,3.1-0.5,4.1-1.5s1.5-2.3,1.5-3.8v-13.1
				h2.5V226c0,2.2-0.7,4-2.2,5.4c-1.5,1.4-3.4,2.1-5.9,2.1s-4.5-0.7-5.9-2.1c-1.5-1.4-2.2-3.2-2.2-5.4v-13.2H119.6z"/>
			<path class="st0" d="M136.3,227.6h2.6c0.1,1.1,0.7,2,1.6,2.7c1,0.7,2.2,1,3.6,1s2.5-0.3,3.4-1c0.9-0.7,1.4-1.5,1.4-2.5
				c0-0.9-0.3-1.6-0.9-2.1c-0.6-0.6-1.6-1-3-1.4l-2.6-0.7c-1.9-0.5-3.3-1.2-4.1-2c-0.9-0.9-1.3-2-1.3-3.4c0-1.7,0.7-3.1,2-4.2
				c1.3-1.1,3.1-1.6,5.2-1.6c2,0,3.7,0.5,5,1.6c1.3,1.1,2,2.5,2.1,4.2h-2.5c-0.1-1.1-0.6-2-1.4-2.6c-0.8-0.6-1.9-0.9-3.2-0.9
				c-1.3,0-2.4,0.3-3.2,0.9c-0.8,0.6-1.3,1.4-1.3,2.4c0,0.8,0.3,1.4,0.9,1.9s1.6,0.9,3,1.3l2.1,0.6c2.1,0.5,3.6,1.2,4.6,2.1
				c0.9,0.9,1.4,2,1.4,3.5c0,1.9-0.7,3.3-2.1,4.4c-1.4,1.1-3.2,1.6-5.6,1.6c-2.2,0-3.9-0.5-5.3-1.6
				C137.2,230.8,136.4,229.4,136.3,227.6z"/>
			<path class="st0" d="M167.7,233.2l-2.1-5.8h-8.1l-2.1,5.8h-2.7l7.5-20.4h2.5l7.7,20.4H167.7z M161.6,215.9l-3.3,9.3h6.6
				L161.6,215.9L161.6,215.9z"/>
			<path class="st0" d="M175.2,233.2h-2.5v-20.4h2.5l11.2,16h0.1v-16h2.5v20.4h-2.5l-11.2-16h-0.1V233.2z"/>
			<path class="st0" d="M205.6,230.9v2.3H193v-20.4h12.6v2.3h-10.1v6.5h9.6v2.3h-9.6v7C195.5,230.9,205.6,230.9,205.6,230.9z"/>
			<path class="st0" d="M214.9,212.8h7.3c1.9,0,3.5,0.6,4.7,1.8c1.2,1.2,1.8,2.8,1.8,4.7c0,1.9-0.6,3.5-1.8,4.7s-2.8,1.8-4.7,1.8
				h-4.8v7.4h-2.5V212.8z M217.4,215.1v8.6h4.1c1.5,0,2.6-0.4,3.4-1.1c0.8-0.8,1.2-1.8,1.2-3.2c0-1.4-0.4-2.4-1.2-3.2
				c-0.8-0.7-1.9-1.1-3.4-1.1H217.4z"/>
			<path class="st0" d="M234.2,225.1v8.1h-2.5v-20.4h7.6c2,0,3.5,0.6,4.7,1.7s1.8,2.6,1.8,4.4c0,1.4-0.4,2.7-1.1,3.7
				c-0.7,1-1.7,1.8-3,2.2l4.7,8.4h-3l-4.4-8.1H234.2z M234.2,215.1v7.8h4.9c1.3,0,2.3-0.3,3-1c0.7-0.7,1.1-1.6,1.1-2.9
				c0-1.2-0.4-2.2-1.1-2.9c-0.7-0.7-1.8-1-3.1-1C239,215.1,234.2,215.1,234.2,215.1z"/>
			<path class="st0" d="M250.7,215.3c1.7-1.9,4-2.8,6.9-2.8c2.9,0,5.2,0.9,6.9,2.8c1.7,1.9,2.5,4.5,2.5,7.7s-0.8,5.8-2.5,7.7
				c-1.7,1.9-4,2.8-6.9,2.8c-2.9,0-5.2-0.9-6.9-2.8c-1.7-1.9-2.5-4.5-2.5-7.7S249,217.2,250.7,215.3z M262.5,217
				c-1.2-1.5-2.9-2.2-5-2.2s-3.7,0.7-5,2.2c-1.2,1.5-1.8,3.5-1.8,6s0.6,4.5,1.8,6s2.9,2.2,5,2.2s3.7-0.7,5-2.2
				c1.2-1.5,1.8-3.5,1.8-6C264.4,220.5,263.7,218.5,262.5,217z"/>
			<path class="st0" d="M268.8,228.4h2.5c0,0.9,0.3,1.6,0.9,2.1s1.4,0.8,2.3,0.8c1.1,0,2-0.3,2.6-1s0.9-1.6,0.9-2.8v-14.7h2.5v14.7
				c0,1.9-0.5,3.4-1.6,4.5s-2.5,1.6-4.4,1.6c-1.7,0-3.1-0.5-4.2-1.5C269.3,231.2,268.8,230,268.8,228.4z"/>
			<path class="st0" d="M297.1,230.9v2.3h-12.6v-20.4h12.6v2.3H287v6.5h9.6v2.3H287v7C287,230.9,297.1,230.9,297.1,230.9z"/>
			<path class="st0" d="M308.9,233.6c-2.8,0-5.1-0.9-6.7-2.8c-1.7-1.9-2.5-4.5-2.5-7.7c0-3.2,0.8-5.8,2.5-7.7
				c1.7-1.9,3.9-2.9,6.7-2.9c2.2,0,4.1,0.6,5.7,1.9c1.6,1.2,2.5,2.9,2.8,4.9h-2.6c-0.3-1.3-1-2.4-2.1-3.2c-1.1-0.8-2.3-1.2-3.8-1.2
				c-2,0-3.6,0.7-4.8,2.2c-1.2,1.5-1.8,3.5-1.8,6s0.6,4.5,1.8,6c1.2,1.5,2.8,2.2,4.8,2.2c1.5,0,2.8-0.3,3.8-1s1.7-1.7,2.1-2.9h2.6
				c-0.5,2-1.4,3.6-2.9,4.7C313,233,311.1,233.6,308.9,233.6z"/>
			<path class="st0" d="M327,233.2h-2.5v-18.1h-6.4v-2.3h15.4v2.3h-6.4v18.1H327z"/>
			<path class="st0" d="M335.2,227.6h2.6c0.1,1.1,0.7,2,1.6,2.7c1,0.7,2.2,1,3.6,1s2.5-0.3,3.4-1s1.4-1.5,1.4-2.5
				c0-0.9-0.3-1.6-0.9-2.1c-0.6-0.6-1.6-1-3-1.4l-2.6-0.7c-1.9-0.5-3.3-1.2-4.1-2c-0.9-0.9-1.3-2-1.3-3.4c0-1.7,0.7-3.1,2-4.2
				s3.1-1.6,5.2-1.6c2,0,3.7,0.5,5,1.6s2,2.5,2.1,4.2h-2.5c-0.1-1.1-0.6-2-1.4-2.6c-0.8-0.6-1.9-0.9-3.2-0.9c-1.3,0-2.4,0.3-3.2,0.9
				c-0.8,0.6-1.3,1.4-1.3,2.4c0,0.8,0.3,1.4,0.9,1.9s1.6,0.9,3,1.3l2.1,0.6c2.1,0.5,3.6,1.2,4.6,2.1c0.9,0.9,1.4,2,1.4,3.5
				c0,1.9-0.7,3.3-2.1,4.4c-1.4,1.1-3.2,1.6-5.6,1.6c-2.2,0-3.9-0.5-5.3-1.6C336.1,230.8,335.3,229.4,335.2,227.6z"/>
		</g>
		<g>
			<rect x="92.6" y="238.6" class="st0" width="141" height="0.7"/>
			<rect x="92.6" y="240.7" class="st0" width="141" height="0.7"/>
			<rect x="92.6" y="242.7" class="st0" width="141" height="1.1"/>
			<rect x="92.6" y="236.2" class="st0" width="141" height="1.1"/>
		</g>
	</g>
</g>
<g>
	<g>
		<g>
			<path class="st1" d="M104.6,55.2c-0.2-3.5-0.4-7.7-0.4-10.8h-0.1c-0.9,2.9-1.9,6.1-3.2,9.5l-4.4,12.2h-2.5L90,54.1
				c-1.2-3.5-2.2-6.8-2.9-9.8h-0.1c-0.1,3.1-0.3,7.3-0.5,11.1l-0.7,10.8h-3.1l1.7-25.1h4.1L93,53.3c1,3.1,1.9,5.8,2.5,8.4h0.1
				c0.6-2.5,1.5-5.3,2.6-8.4l4.5-12.1h4.1l1.6,25.1h-3.2L104.6,55.2z"/>
			<path class="st1" d="M116.7,41.2V56c0,5.6,2.5,8,5.8,8c3.7,0,6.1-2.5,6.1-8V41.2h3.3v14.6c0,7.7-4.1,10.9-9.5,10.9
				c-5.1,0-9-2.9-9-10.7V41.2H116.7z"/>
			<path class="st1" d="M137.1,62.3c1.5,0.9,3.6,1.6,5.8,1.6c3.3,0,5.2-1.7,5.2-4.3c0-2.3-1.3-3.7-4.7-5c-4.1-1.5-6.6-3.6-6.6-7.1
				c0-3.9,3.2-6.8,8.1-6.8c2.6,0,4.4,0.6,5.5,1.2l-0.9,2.6c-0.8-0.4-2.5-1.2-4.8-1.2c-3.4,0-4.7,2-4.7,3.8c0,2.3,1.5,3.5,5,4.8
				c4.2,1.6,6.4,3.7,6.4,7.4c0,3.9-2.9,7.2-8.8,7.2c-2.4,0-5.1-0.7-6.4-1.6L137.1,62.3z"/>
			<path class="st1" d="M159.9,58.4l-2.6,7.9H154l8.5-25.1h3.9l8.6,25.1h-3.5l-2.7-7.9H159.9z M168.1,55.8l-2.5-7.2
				c-0.6-1.6-0.9-3.1-1.3-4.6h-0.1c-0.4,1.5-0.8,3-1.3,4.5l-2.5,7.3H168.1z"/>
			<path class="st1" d="M178.6,66.2V41.2h3.5l8,12.7c1.9,2.9,3.3,5.6,4.5,8.2l0.1,0c-0.3-3.4-0.4-6.4-0.4-10.3V41.2h3.1v25.1h-3.3
				l-8-12.7c-1.7-2.8-3.4-5.7-4.7-8.4l-0.1,0c0.2,3.2,0.3,6.2,0.3,10.3v10.7H178.6z"/>
			<path class="st1" d="M216.1,54.5h-9.8v9h10.9v2.7h-14.1V41.2h13.5v2.7h-10.3v7.9h9.8V54.5z"/>
			<path class="st1" d="M229.3,41.5c1.6-0.3,3.6-0.5,6.2-0.5c3.2,0,5.5,0.7,7,2.1c1.4,1.2,2.2,3,2.2,5.2c0,2.3-0.7,4.1-1.9,5.4
				c-1.7,1.8-4.5,2.8-7.7,2.8c-1,0-1.9,0-2.6-0.2v10.1h-3.2V41.5z M232.6,53.6c0.7,0.2,1.6,0.3,2.7,0.3c3.9,0,6.3-1.9,6.3-5.4
				c0-3.3-2.3-4.9-5.9-4.9c-1.4,0-2.5,0.1-3.1,0.3V53.6z"/>
			<path class="st1" d="M270.6,53.4c0,8.6-5.2,13.2-11.7,13.2c-6.6,0-11.3-5.1-11.3-12.7c0-8,5-13.2,11.7-13.2
				C266.1,40.7,270.6,46,270.6,53.4z M251.1,53.8c0,5.4,2.9,10.2,8,10.2c5.1,0,8-4.7,8-10.4c0-5-2.6-10.2-8-10.2
				C253.8,43.4,251.1,48.3,251.1,53.8z"/>
			<path class="st1" d="M296.2,53.4c0,8.6-5.2,13.2-11.7,13.2c-6.6,0-11.3-5.1-11.3-12.7c0-8,5-13.2,11.7-13.2
				C291.8,40.7,296.2,46,296.2,53.4z M276.8,53.8c0,5.4,2.9,10.2,8,10.2c5.1,0,8-4.7,8-10.4c0-5-2.6-10.2-8-10.2
				C279.4,43.4,276.8,48.3,276.8,53.8z"/>
			<path class="st1" d="M300.4,41.2h3.2v22.4h10.7v2.7h-14V41.2z"/>
			<path class="st1" d="M317.6,62.3c1.5,0.9,3.6,1.6,5.8,1.6c3.3,0,5.2-1.7,5.2-4.3c0-2.3-1.3-3.7-4.7-5c-4.1-1.5-6.6-3.6-6.6-7.1
				c0-3.9,3.2-6.8,8.1-6.8c2.6,0,4.4,0.6,5.5,1.2l-0.9,2.6c-0.8-0.4-2.5-1.2-4.8-1.2c-3.4,0-4.7,2-4.7,3.8c0,2.3,1.5,3.5,5,4.8
				c4.2,1.6,6.4,3.7,6.4,7.4c0,3.9-2.9,7.2-8.8,7.2c-2.4,0-5.1-0.7-6.4-1.6L317.6,62.3z"/>
		</g>
		<g>
			<g>
				<rect x="61.7" y="57.9" class="st1" width="2.5" height="2.7"/>
				<rect x="57.3" y="57.9" class="st1" width="2.5" height="2.7"/>
				<rect x="57.3" y="62.9" class="st1" width="2.5" height="2.7"/>
				<rect x="61.7" y="62.9" class="st1" width="2.5" height="2.7"/>
			</g>
			<polygon class="st1" points="78.4,78.2 66.3,43 50.2,52.2 34,43 21.9,78.2 36.5,49.7 48.6,53.1 45.6,54.8 45.6,54.8 50.5,75.3 
				54.8,54.8 51.7,53.1 63.8,49.7 			"/>
			<g>
				<rect x="39.8" y="57.9" class="st1" width="2.5" height="2.7"/>
				<rect x="35.5" y="57.9" class="st1" width="2.5" height="2.7"/>
				<rect x="35.5" y="62.9" class="st1" width="2.5" height="2.7"/>
				<rect x="39.8" y="62.9" class="st1" width="2.5" height="2.7"/>
			</g>
		</g>
	</g>
	<g>
		<rect x="82.3" y="74" class="st1" width="115.1" height="0.7"/>
		<rect x="82.3" y="76.2" class="st1" width="115.1" height="0.7"/>
		<rect x="82.3" y="78.5" class="st1" width="115.1" height="1.2"/>
		<rect x="82.3" y="71.2" class="st1" width="115.1" height="1.2"/>
	</g>
	<g>
		<path class="st1" d="M212.1,73.8l-1.6,5.9h-0.8l-1.9-7.4h0.9l1.4,6h0l1.6-6h0.9l1.6,6h0l1.4-6h0.9l-1.9,7.4h-0.8L212.1,73.8
			L212.1,73.8z"/>
		<path class="st1" d="M220.1,78.1h0.8c-0.1,0.5-0.3,0.9-0.7,1.2c-0.4,0.3-0.9,0.5-1.4,0.5c-0.7,0-1.3-0.2-1.7-0.7
			c-0.4-0.5-0.6-1.2-0.6-2c0-0.8,0.2-1.5,0.6-2c0.4-0.5,1-0.8,1.7-0.8c0.7,0,1.2,0.2,1.6,0.7c0.4,0.5,0.6,1.1,0.6,1.9v0.3h-3.6v0.1
			c0,0.5,0.1,0.9,0.4,1.2c0.3,0.3,0.6,0.5,1.1,0.5c0.3,0,0.6-0.1,0.8-0.2C219.9,78.6,220,78.4,220.1,78.1z M218.8,75
			c-0.4,0-0.7,0.1-1,0.4c-0.3,0.3-0.4,0.7-0.4,1.1h2.7c0-0.5-0.1-0.8-0.4-1.1C219.5,75.1,219.2,75,218.8,75z"/>
		<path class="st1" d="M227.2,78.1h0.8c-0.1,0.5-0.3,0.9-0.7,1.2c-0.4,0.3-0.9,0.5-1.4,0.5c-0.7,0-1.3-0.2-1.7-0.7
			c-0.4-0.5-0.6-1.2-0.6-2c0-0.8,0.2-1.5,0.6-2c0.4-0.5,1-0.8,1.7-0.8c0.7,0,1.2,0.2,1.6,0.7c0.4,0.5,0.6,1.1,0.6,1.9v0.3h-3.6v0.1
			c0,0.5,0.1,0.9,0.4,1.2c0.3,0.3,0.6,0.5,1.1,0.5c0.3,0,0.6-0.1,0.8-0.2C227,78.6,227.1,78.4,227.2,78.1z M225.9,75
			c-0.4,0-0.7,0.1-1,0.4c-0.3,0.3-0.4,0.7-0.4,1.1h2.7c0-0.5-0.1-0.8-0.4-1.1C226.6,75.1,226.3,75,225.9,75z"/>
		<path class="st1" d="M230.6,77.6L230.6,77.6l-1.2,2h-0.9l1.7-2.7l-1.7-2.7h0.9l1.2,2h0l1.2-2h0.9l-1.7,2.6l1.7,2.7h-0.9
			L230.6,77.6z"/>
		<path class="st1" d="M237.6,76.1h-0.8c-0.1-0.3-0.2-0.6-0.4-0.8c-0.2-0.2-0.5-0.3-0.9-0.3c-0.4,0-0.8,0.2-1.1,0.5
			c-0.3,0.4-0.4,0.8-0.4,1.4c0,0.6,0.1,1.1,0.4,1.4c0.3,0.4,0.6,0.5,1.1,0.5c0.3,0,0.6-0.1,0.8-0.3c0.2-0.2,0.4-0.4,0.4-0.8h0.8
			c-0.1,0.5-0.3,1-0.7,1.3c-0.4,0.3-0.9,0.5-1.4,0.5c-0.7,0-1.3-0.2-1.7-0.7c-0.4-0.5-0.6-1.2-0.6-2c0-0.8,0.2-1.5,0.6-2
			c0.4-0.5,1-0.8,1.7-0.8c0.6,0,1.1,0.2,1.5,0.5C237.3,75.1,237.5,75.6,237.6,76.1z"/>
		<path class="st1" d="M241.7,78.1h0.8c-0.1,0.5-0.3,0.9-0.7,1.2c-0.4,0.3-0.9,0.5-1.4,0.5c-0.7,0-1.3-0.2-1.7-0.7
			c-0.4-0.5-0.6-1.2-0.6-2c0-0.8,0.2-1.5,0.6-2c0.4-0.5,1-0.8,1.7-0.8c0.7,0,1.2,0.2,1.6,0.7c0.4,0.5,0.6,1.1,0.6,1.9v0.3H239v0.1
			c0,0.5,0.1,0.9,0.4,1.2c0.3,0.3,0.6,0.5,1.1,0.5c0.3,0,0.6-0.1,0.8-0.2C241.5,78.6,241.6,78.4,241.7,78.1z M240.4,75
			c-0.4,0-0.7,0.1-1,0.4c-0.3,0.3-0.4,0.7-0.4,1.1h2.7c0-0.5-0.1-0.8-0.4-1.1C241.1,75.1,240.8,75,240.4,75z"/>
		<path class="st1" d="M246.8,78.1h0.8c-0.1,0.5-0.3,0.9-0.7,1.2c-0.4,0.3-0.9,0.5-1.4,0.5c-0.7,0-1.3-0.2-1.7-0.7
			c-0.4-0.5-0.6-1.2-0.6-2c0-0.8,0.2-1.5,0.6-2c0.4-0.5,1-0.8,1.7-0.8c0.7,0,1.2,0.2,1.6,0.7c0.4,0.5,0.6,1.1,0.6,1.9v0.3h-3.6v0.1
			c0,0.5,0.1,0.9,0.4,1.2s0.6,0.5,1.1,0.5c0.3,0,0.6-0.1,0.8-0.2C246.6,78.6,246.7,78.4,246.8,78.1z M245.5,75c-0.4,0-0.7,0.1-1,0.4
			c-0.3,0.3-0.4,0.7-0.4,1.1h2.7c0-0.5-0.1-0.8-0.4-1.1C246.2,75.1,245.9,75,245.5,75z"/>
		<path class="st1" d="M250.4,79.7c-0.6,0-1.2-0.3-1.6-0.8c-0.4-0.5-0.6-1.2-0.6-2c0-0.8,0.2-1.5,0.6-2c0.4-0.5,0.9-0.8,1.5-0.8
			c0.4,0,0.7,0.1,1,0.3c0.3,0.2,0.5,0.4,0.6,0.7h0v-2.9h0.8v7.4h-0.8v-0.9h0c-0.2,0.3-0.4,0.6-0.7,0.7
			C251.1,79.7,250.8,79.7,250.4,79.7z M250.6,75c-0.4,0-0.8,0.2-1.1,0.5c-0.3,0.4-0.4,0.8-0.4,1.4c0,0.6,0.1,1.1,0.4,1.4
			c0.3,0.4,0.6,0.5,1.1,0.5c0.4,0,0.8-0.2,1.1-0.5c0.3-0.4,0.4-0.8,0.4-1.4c0-0.6-0.1-1.1-0.4-1.4C251.4,75.2,251,75,250.6,75z"/>
		<path class="st1" d="M256.5,81.7c-0.1,0-0.3,0-0.4,0v-0.7c0.1,0,0.2,0,0.3,0c0.2,0,0.4-0.1,0.6-0.2c0.1-0.1,0.3-0.4,0.4-0.7
			l0.1-0.4l-1.9-5.3h0.9l1.4,4.4h0l1.4-4.4h0.9l-2,5.7c-0.2,0.6-0.4,1-0.7,1.3C257.3,81.5,256.9,81.7,256.5,81.7z"/>
		<path class="st1" d="M262.8,79.7c-0.7,0-1.3-0.2-1.7-0.7c-0.4-0.5-0.6-1.2-0.6-2c0-0.8,0.2-1.5,0.6-2c0.4-0.5,1-0.7,1.7-0.7
			c0.7,0,1.3,0.2,1.7,0.7c0.4,0.5,0.6,1.2,0.6,2c0,0.8-0.2,1.5-0.6,2C264.1,79.5,263.5,79.7,262.8,79.7z M261.8,78.4
			c0.3,0.3,0.6,0.5,1.1,0.5c0.5,0,0.8-0.2,1.1-0.5c0.3-0.3,0.4-0.8,0.4-1.5c0-0.6-0.1-1.1-0.4-1.5c-0.3-0.3-0.6-0.5-1.1-0.5
			c-0.5,0-0.8,0.2-1.1,0.5c-0.3,0.3-0.4,0.8-0.4,1.5C261.4,77.6,261.5,78.1,261.8,78.4z"/>
		<path class="st1" d="M270.2,74.3v5.3h-0.8v-0.9h0c-0.3,0.6-0.8,1-1.6,1c-0.5,0-1-0.2-1.3-0.5c-0.3-0.4-0.5-0.8-0.5-1.4v-3.5h0.8
			v3.3c0,0.9,0.4,1.3,1.2,1.3c0.4,0,0.7-0.1,1-0.4c0.2-0.3,0.4-0.6,0.4-1.1v-3.1H270.2z"/>
		<path class="st1" d="M271.2,79.7v-5.3h0.8v0.9h0c0.1-0.3,0.2-0.5,0.5-0.7c0.2-0.2,0.5-0.3,0.8-0.3c0.1,0,0.2,0,0.3,0v0.9
			c-0.1,0-0.2-0.1-0.5-0.1c-0.3,0-0.6,0.1-0.8,0.3c-0.2,0.2-0.3,0.5-0.3,0.9v3.3H271.2z"/>
		<path class="st1" d="M279.7,78.1h0.8c-0.1,0.5-0.3,0.9-0.7,1.2c-0.4,0.3-0.9,0.5-1.4,0.5c-0.7,0-1.3-0.2-1.7-0.7
			c-0.4-0.5-0.6-1.2-0.6-2c0-0.8,0.2-1.5,0.6-2c0.4-0.5,1-0.8,1.7-0.8c0.7,0,1.2,0.2,1.6,0.7c0.4,0.5,0.6,1.1,0.6,1.9v0.3H277v0.1
			c0,0.5,0.1,0.9,0.4,1.2c0.3,0.3,0.6,0.5,1.1,0.5c0.3,0,0.6-0.1,0.8-0.2C279.5,78.6,279.6,78.4,279.7,78.1z M278.4,75
			c-0.4,0-0.7,0.1-1,0.4c-0.3,0.3-0.4,0.7-0.4,1.1h2.7c0-0.5-0.1-0.8-0.4-1.1C279.1,75.1,278.7,75,278.4,75z"/>
		<path class="st1" d="M283.1,77.6L283.1,77.6l-1.2,2h-0.9l1.7-2.7l-1.7-2.7h0.9l1.2,2h0l1.2-2h0.9l-1.7,2.6l1.7,2.7h-0.9
			L283.1,77.6z"/>
		<path class="st1" d="M288.4,74.2c0.6,0,1.2,0.3,1.6,0.8c0.4,0.5,0.6,1.2,0.6,2c0,0.8-0.2,1.5-0.6,2c-0.4,0.5-0.9,0.8-1.5,0.8
			c-0.4,0-0.7-0.1-1-0.3c-0.3-0.2-0.5-0.4-0.6-0.7h0v2.6H286v-7.1h0.8v0.9h0c0.2-0.3,0.4-0.6,0.7-0.7
			C287.7,74.3,288.1,74.2,288.4,74.2z M288.3,79c0.4,0,0.8-0.2,1.1-0.5c0.3-0.4,0.4-0.8,0.4-1.4c0-0.6-0.1-1.1-0.4-1.4
			c-0.3-0.4-0.6-0.5-1.1-0.5c-0.4,0-0.8,0.2-1,0.5c-0.3,0.4-0.4,0.8-0.4,1.4c0,0.6,0.1,1.1,0.4,1.4C287.5,78.8,287.8,79,288.3,79z"
			/>
		<path class="st1" d="M294.8,78.1h0.8c-0.1,0.5-0.3,0.9-0.7,1.2c-0.4,0.3-0.9,0.5-1.4,0.5c-0.7,0-1.3-0.2-1.7-0.7
			c-0.4-0.5-0.6-1.2-0.6-2c0-0.8,0.2-1.5,0.6-2c0.4-0.5,1-0.8,1.7-0.8c0.7,0,1.2,0.2,1.6,0.7c0.4,0.5,0.6,1.1,0.6,1.9v0.3H292v0.1
			c0,0.5,0.1,0.9,0.4,1.2s0.6,0.5,1.1,0.5c0.3,0,0.6-0.1,0.8-0.2C294.6,78.6,294.7,78.4,294.8,78.1z M293.4,75c-0.4,0-0.7,0.1-1,0.4
			c-0.3,0.3-0.4,0.7-0.4,1.1h2.7c0-0.5-0.1-0.8-0.4-1.1C294.2,75.1,293.8,75,293.4,75z"/>
		<path class="st1" d="M300.7,76.1h-0.8c-0.1-0.3-0.2-0.6-0.4-0.8c-0.2-0.2-0.5-0.3-0.9-0.3c-0.4,0-0.8,0.2-1.1,0.5
			c-0.3,0.4-0.4,0.8-0.4,1.4c0,0.6,0.1,1.1,0.4,1.4c0.3,0.4,0.6,0.5,1.1,0.5c0.3,0,0.6-0.1,0.8-0.3c0.2-0.2,0.4-0.4,0.4-0.8h0.8
			c-0.1,0.5-0.3,1-0.7,1.3c-0.4,0.3-0.9,0.5-1.4,0.5c-0.7,0-1.3-0.2-1.7-0.7c-0.4-0.5-0.6-1.2-0.6-2c0-0.8,0.2-1.5,0.6-2
			c0.4-0.5,1-0.8,1.7-0.8c0.6,0,1.1,0.2,1.5,0.5C300.4,75.1,300.6,75.6,300.7,76.1z"/>
		<path class="st1" d="M301.8,73h0.8v1.3h1V75h-1v3.2c0,0.2,0.1,0.4,0.2,0.5c0.1,0.1,0.3,0.2,0.5,0.2c0.1,0,0.3,0,0.3,0v0.7
			c-0.1,0-0.3,0-0.5,0c-0.5,0-0.8-0.1-1-0.3c-0.2-0.2-0.3-0.6-0.3-1.1V75H301v-0.7h0.8V73z"/>
		<path class="st1" d="M305.8,79.7c-0.5,0-0.9-0.1-1.2-0.4c-0.3-0.3-0.5-0.7-0.5-1.2c0-0.5,0.2-0.8,0.5-1.1c0.3-0.3,0.8-0.4,1.3-0.5
			l1.4-0.1V76c0-0.3-0.1-0.6-0.3-0.8c-0.2-0.2-0.5-0.3-0.8-0.3c-0.3,0-0.6,0.1-0.8,0.2c-0.2,0.1-0.3,0.4-0.4,0.6h-0.8
			c0-0.5,0.2-0.9,0.6-1.2c0.4-0.3,0.8-0.5,1.4-0.5c0.6,0,1.1,0.2,1.4,0.5c0.3,0.3,0.5,0.7,0.5,1.3v3.7h-0.8v-0.9h0
			c-0.2,0.3-0.4,0.5-0.7,0.7C306.5,79.7,306.2,79.7,305.8,79.7z M306,79c0.4,0,0.7-0.1,1-0.4c0.3-0.3,0.4-0.6,0.4-1v-0.4l-1.3,0.1
			c-0.3,0-0.6,0.1-0.8,0.3c-0.2,0.2-0.3,0.4-0.3,0.6c0,0.3,0.1,0.5,0.3,0.6C305.5,78.9,305.7,79,306,79z"/>
		<path class="st1" d="M309.6,73h0.8v1.3h1V75h-1v3.2c0,0.2,0.1,0.4,0.2,0.5c0.1,0.1,0.3,0.2,0.5,0.2c0.1,0,0.3,0,0.3,0v0.7
			c-0.1,0-0.3,0-0.5,0c-0.5,0-0.8-0.1-1-0.3c-0.2-0.2-0.3-0.6-0.3-1.1V75h-0.8v-0.7h0.8V73z"/>
		<path class="st1" d="M312.8,73.4c-0.1,0-0.3-0.1-0.4-0.2c-0.1-0.1-0.2-0.2-0.2-0.4c0-0.2,0.1-0.3,0.2-0.4c0.1-0.1,0.2-0.2,0.4-0.2
			c0.1,0,0.3,0.1,0.4,0.2c0.1,0.1,0.2,0.2,0.2,0.4c0,0.2-0.1,0.3-0.2,0.4C313.1,73.4,313,73.4,312.8,73.4z M312.4,79.7v-5.3h0.8v5.3
			H312.4z"/>
		<path class="st1" d="M316.5,79.7c-0.7,0-1.3-0.2-1.7-0.7c-0.4-0.5-0.6-1.2-0.6-2c0-0.8,0.2-1.5,0.6-2c0.4-0.5,1-0.7,1.7-0.7
			c0.7,0,1.3,0.2,1.7,0.7c0.4,0.5,0.6,1.2,0.6,2c0,0.8-0.2,1.5-0.6,2C317.7,79.5,317.2,79.7,316.5,79.7z M315.4,78.4
			c0.3,0.3,0.6,0.5,1.1,0.5c0.5,0,0.8-0.2,1.1-0.5c0.3-0.3,0.4-0.8,0.4-1.5c0-0.6-0.1-1.1-0.4-1.5c-0.3-0.3-0.6-0.5-1.1-0.5
			c-0.5,0-0.8,0.2-1.1,0.5c-0.3,0.3-0.4,0.8-0.4,1.5C315,77.6,315.1,78.1,315.4,78.4z"/>
		<path class="st1" d="M319.6,79.7v-5.3h0.8v0.9h0c0.1-0.3,0.4-0.5,0.6-0.7c0.3-0.2,0.6-0.2,1-0.2c0.5,0,1,0.2,1.3,0.5
			c0.3,0.4,0.5,0.8,0.5,1.4v3.5H323v-3.3c0-0.4-0.1-0.8-0.3-1c-0.2-0.2-0.5-0.3-0.9-0.3c-0.4,0-0.7,0.1-1,0.4
			c-0.2,0.3-0.4,0.6-0.4,1.1v3.1H319.6z"/>
		<path class="st1" d="M324.8,75.8c0-0.5,0.2-0.8,0.5-1.1c0.4-0.3,0.8-0.4,1.4-0.4c0.5,0,1,0.1,1.3,0.4c0.3,0.3,0.5,0.7,0.5,1.1
			h-0.8c0-0.3-0.1-0.5-0.3-0.6c-0.2-0.1-0.4-0.2-0.7-0.2c-0.3,0-0.6,0.1-0.7,0.2s-0.3,0.3-0.3,0.6c0,0.4,0.3,0.6,0.8,0.8l0.8,0.2
			c0.5,0.1,0.9,0.3,1.1,0.5c0.2,0.2,0.3,0.5,0.3,0.9c0,0.5-0.2,0.8-0.6,1.1c-0.4,0.3-0.9,0.4-1.4,0.4c-0.5,0-1-0.1-1.4-0.4
			c-0.4-0.3-0.6-0.7-0.6-1.1h0.8c0.1,0.6,0.5,0.9,1.2,0.9c0.3,0,0.6-0.1,0.8-0.2c0.2-0.1,0.3-0.3,0.3-0.6c0-0.2-0.1-0.3-0.2-0.5
			c-0.1-0.1-0.3-0.2-0.6-0.3l-0.9-0.2C325.2,77,324.8,76.5,324.8,75.8z"/>
	</g>
</g>
</svg>
