<?xml version="1.0" encoding="utf-8"?>
<!-- Generator: Adobe Illustrator 25.1.0, SVG Export Plug-In . SVG Version: 6.00 Build 0)  -->
<svg version="1.1" id="Layer_1" xmlns="http://www.w3.org/2000/svg" xmlns:xlink="http://www.w3.org/1999/xlink" x="0px" y="0px"
	 viewBox="0 0 348 112" style="enable-background:new 0 0 348 112;" xml:space="preserve">
<style type="text/css">
	.st0{fill:#FFFFFF;}
</style>
<g>
	<path class="st0" d="M23.7,18.9l-19.6,70h19.6h19.6L23.7,18.9z M22.7,76.2h-4.8v-8.2h4.8V76.2z M22.7,60.6h-4.8v-9.4h4.8V60.6z
		 M29.6,76.2h-4.8v-8.2h4.8V76.2z M24.8,60.6v-9.4h4.8v9.4H24.8z"/>
	<polygon class="st0" points="33.8,18.9 33.8,18.9 33.8,88.8 53.4,88.8 	"/>
	<polygon class="st0" points="33.8,18.9 28.1,34.4 28.1,34.4 33.8,55.9 	"/>
</g>
<g>
	<path class="st0" d="M60.5,87.4h-3.6V31h-9.2v-7.1h22V31h-9.2V87.4z"/>
	<path class="st0" d="M73.2,87.4V23.9h3.5v25.1h0.1c0.6-2.6,1.5-4.6,2.6-6c1.1-1.4,2.5-2.1,4.1-2.1c2.3,0,4.1,1.5,5.4,4.6
		c1.3,3.1,2,7.2,2,12.4v29.6h-3.5V59.2c0-3.7-0.4-6.6-1.3-8.6c-0.8-2-2.1-3-3.7-3c-1.7,0-3.1,1.2-4.1,3.6c-1,2.4-1.5,5.6-1.5,9.6
		v26.7H73.2z"/>
	<path class="st0" d="M109.3,74.3h3.5c-0.3,4.1-1.3,7.4-2.9,10c-1.6,2.6-3.6,3.9-5.9,3.9c-3,0-5.4-2.1-7.1-6.3
		c-1.7-4.2-2.6-10-2.6-17.2c0-7.2,0.9-12.9,2.6-17.3c1.7-4.4,4-6.6,6.9-6.6c2.8,0,5.1,2.1,6.7,6.2c1.6,4.1,2.5,9.7,2.5,16.7v2.9
		H97.9V67c0,4.4,0.6,7.9,1.7,10.6c1.1,2.6,2.6,4,4.5,4c1.3,0,2.4-0.7,3.4-2C108.4,78.3,109,76.5,109.3,74.3z M103.8,47.5
		c-1.6,0-3,1.2-4.1,3.7c-1.1,2.5-1.7,5.6-1.8,9.5h11.4c0-3.9-0.6-7-1.6-9.5C106.7,48.7,105.4,47.5,103.8,47.5z"/>
	<path class="st0" d="M125.6,23.9H136c2.7,0,5,1.9,6.7,5.7c1.7,3.8,2.6,8.7,2.6,14.7c0,6-0.9,10.9-2.6,14.8c-1.8,3.8-4,5.7-6.8,5.7
		h-6.7v22.7h-3.6V23.9z M129.2,30.9v26.8h5.8c2.1,0,3.7-1.2,4.8-3.5c1.1-2.4,1.7-5.7,1.7-9.9s-0.6-7.5-1.7-9.8
		c-1.1-2.3-2.8-3.5-4.8-3.5H129.2z"/>
	<path class="st0" d="M156.7,88.2c-2.9,0-5.3-2.1-7.1-6.4c-1.8-4.3-2.7-10-2.7-17.3c0-7.3,0.9-13,2.7-17.3c1.8-4.3,4.1-6.4,7.1-6.4
		c2.9,0,5.3,2.1,7.1,6.4c1.8,4.3,2.7,10,2.7,17.3c0,7.2-0.9,13-2.7,17.3C161.9,86.1,159.6,88.2,156.7,88.2z M152.2,77
		c1.1,3,2.6,4.5,4.5,4.5c1.9,0,3.4-1.5,4.5-4.5c1.1-3,1.7-7.1,1.7-12.5c0-5.3-0.6-9.5-1.7-12.5c-1.1-3-2.6-4.5-4.5-4.5
		c-1.9,0-3.4,1.5-4.5,4.5c-1.1,3-1.7,7.2-1.7,12.5C150.5,69.8,151.1,74,152.2,77z"/>
	<path class="st0" d="M178.6,88.2c-2.9,0-5.3-2.1-7.1-6.4c-1.8-4.3-2.7-10-2.7-17.3c0-7.3,0.9-13,2.7-17.3c1.8-4.3,4.1-6.4,7.1-6.4
		c2.9,0,5.3,2.1,7.1,6.4c1.8,4.3,2.7,10,2.7,17.3c0,7.2-0.9,13-2.7,17.3C183.9,86.1,181.6,88.2,178.6,88.2z M174.1,77
		c1.1,3,2.6,4.5,4.5,4.5c1.9,0,3.4-1.5,4.5-4.5c1.1-3,1.7-7.1,1.7-12.5c0-5.3-0.6-9.5-1.7-12.5c-1.1-3-2.6-4.5-4.5-4.5
		c-1.9,0-3.4,1.5-4.5,4.5c-1.1,3-1.7,7.2-1.7,12.5C172.5,69.8,173,74,174.1,77z"/>
	<path class="st0" d="M192.1,87.4V23.9h3.5v63.6H192.1z"/>
	<path class="st0" d="M238.2,87.4h-3.4v-49h-0.1L225.3,87h-3.1l-9.3-48.6h-0.1v49h-3.4V23.9h4.2l10.1,53.1h0.2l10.1-53.1h4.2V87.4z"
		/>
	<path class="st0" d="M248.8,88.2c-2.1,0-3.8-1.3-5.1-3.8c-1.3-2.5-1.9-5.8-1.9-10c0-3.9,0.7-7.1,2-9.4c1.3-2.4,3.2-3.7,5.6-4l6-0.7
		v-3.8c0-2.8-0.4-5-1.2-6.6s-1.9-2.4-3.4-2.4c-1.3,0-2.4,0.6-3.3,1.9c-0.8,1.3-1.4,3.1-1.6,5.4h-3.4c0.1-4.1,0.9-7.4,2.4-10.1
		c1.5-2.6,3.5-3.9,5.9-3.9c2.5,0,4.4,1.4,5.9,4.1c1.4,2.7,2.2,6.3,2.2,10.9v31.7h-3.3v-7.9h-0.1c-0.6,2.6-1.6,4.7-2.8,6.3
		S250.2,88.2,248.8,88.2z M249.6,81.7c1.7,0,3-1.1,4.2-3.4c1.1-2.2,1.7-5,1.7-8.3v-3.7l-5.6,0.7c-1.4,0.2-2.5,1-3.3,2.2
		c-0.8,1.3-1.2,3-1.2,5.2c0,2.2,0.4,3.9,1.2,5.2C247.3,81.1,248.3,81.7,249.6,81.7z"/>
	<path class="st0" d="M263.1,54.3c0-3.9,0.7-7.2,2.2-9.7c1.5-2.5,3.3-3.8,5.7-3.8c2.2,0,4,1.3,5.4,3.8c1.4,2.5,2.2,5.7,2.3,9.6h-3.4
		c-0.1-2.2-0.6-4-1.4-5.2c-0.8-1.3-1.8-1.9-3.1-1.9s-2.3,0.6-3.1,1.9c-0.8,1.2-1.2,2.9-1.2,4.9c0,3.1,1.2,5.3,3.5,6.6l3.3,1.7
		c2.1,1.2,3.6,2.7,4.5,4.6c0.9,1.9,1.3,4.5,1.3,7.9c0,4-0.8,7.3-2.3,9.8c-1.6,2.5-3.6,3.8-6,3.8c-2.3,0-4.2-1.2-5.7-3.7
		c-1.5-2.5-2.3-5.8-2.5-9.8h3.5c0.4,4.9,2,7.3,4.9,7.3c1.4,0,2.5-0.6,3.4-1.8c0.8-1.2,1.2-2.9,1.2-5c0-1.6-0.2-3-0.7-3.9
		c-0.5-1-1.3-1.8-2.5-2.5l-3.7-2.1C264.9,64.7,263.1,60.5,263.1,54.3z"/>
	<path class="st0" d="M283.9,30.6h3.5v11.1h4.1v6.3h-4.1v27.2c0,2.1,0.2,3.6,0.6,4.6c0.4,1,1.1,1.5,2,1.5c0.6,0,1.1-0.1,1.5-0.2v6.4
		c-0.5,0.2-1.2,0.4-2.2,0.4c-1.9,0-3.3-0.9-4.1-2.8c-0.8-1.9-1.2-5-1.2-9.4V47.9h-3.1v-6.3h3.1V30.6z"/>
	<path class="st0" d="M308.5,74.3h3.5c-0.3,4.1-1.3,7.4-2.9,10c-1.6,2.6-3.6,3.9-5.9,3.9c-3,0-5.4-2.1-7.1-6.3
		c-1.7-4.2-2.6-10-2.6-17.2c0-7.2,0.9-12.9,2.6-17.3c1.7-4.4,4-6.6,6.9-6.6c2.8,0,5.1,2.1,6.7,6.2c1.6,4.1,2.5,9.7,2.5,16.7v2.9
		h-15.1V67c0,4.4,0.6,7.9,1.7,10.6c1.1,2.6,2.6,4,4.5,4c1.3,0,2.4-0.7,3.4-2C307.6,78.3,308.2,76.5,308.5,74.3z M303,47.5
		c-1.6,0-3,1.2-4.1,3.7c-1.1,2.5-1.7,5.6-1.8,9.5h11.4c0-3.9-0.6-7-1.6-9.5C306,48.7,304.7,47.5,303,47.5z"/>
	<path class="st0" d="M315.8,87.4V41.6h3.3v7.5h0.1c0.4-2.6,1-4.6,1.9-6.1c0.9-1.5,2-2.2,3.2-2.2c0.3,0,0.8,0.1,1.4,0.3v7.4
		c-0.4-0.3-1-0.4-1.9-0.4c-1.4,0-2.5,1-3.3,3c-0.8,2-1.2,4.6-1.2,7.8v28.6H315.8z"/>
	<path class="st0" d="M328.2,54.3c0-3.9,0.7-7.2,2.2-9.7c1.5-2.5,3.3-3.8,5.7-3.8c2.2,0,4,1.3,5.4,3.8c1.4,2.5,2.2,5.7,2.3,9.6h-3.4
		c-0.1-2.2-0.6-4-1.4-5.2c-0.8-1.3-1.8-1.9-3.1-1.9s-2.3,0.6-3.1,1.9c-0.8,1.2-1.2,2.9-1.2,4.9c0,3.1,1.2,5.3,3.5,6.6l3.3,1.7
		c2.1,1.2,3.6,2.7,4.5,4.6c0.9,1.9,1.3,4.5,1.3,7.9c0,4-0.8,7.3-2.3,9.8c-1.6,2.5-3.6,3.8-6,3.8c-2.3,0-4.2-1.2-5.7-3.7
		c-1.5-2.5-2.3-5.8-2.5-9.8h3.5c0.4,4.9,2,7.3,4.9,7.3c1.4,0,2.5-0.6,3.4-1.8c0.8-1.2,1.2-2.9,1.2-5c0-1.6-0.2-3-0.7-3.9
		c-0.5-1-1.3-1.8-2.5-2.5l-3.7-2.1C330,64.7,328.2,60.5,328.2,54.3z"/>
</g>
</svg>
