<?xml version="1.0" encoding="utf-8"?>
<!-- Generator: Adobe Illustrator 25.1.0, SVG Export Plug-In . SVG Version: 6.00 Build 0)  -->
<svg version="1.1" id="Layer_1" xmlns="http://www.w3.org/2000/svg" xmlns:xlink="http://www.w3.org/1999/xlink" x="0px" y="0px"
	 viewBox="0 0 348 112" style="enable-background:new 0 0 348 112;" xml:space="preserve">
<style type="text/css">
	.st0{fill:#FFFFFF;}
</style>
<g>
	<rect x="36.8" y="62.4" class="st0" width="3.8" height="4.2"/>
	<rect x="31.2" y="62.4" class="st0" width="3.8" height="4.2"/>
	<rect x="31.2" y="69.4" class="st0" width="3.8" height="4.2"/>
	<rect x="36.8" y="69.4" class="st0" width="3.8" height="4.2"/>
	<polygon class="st0" points="77.1,73.4 94.1,53.2 111.1,73.4 94.1,45.5 	"/>
	<polygon class="st0" points="18.8,73.5 35.8,53.4 52.8,73.5 35.8,45.6 	"/>
	<rect x="95.1" y="61.2" class="st0" width="3.8" height="4.2"/>
	<rect x="89.5" y="61.2" class="st0" width="3.8" height="4.2"/>
	<rect x="89.5" y="68.2" class="st0" width="3.8" height="4.2"/>
	<rect x="95.1" y="68.2" class="st0" width="3.8" height="4.2"/>
	<polygon class="st0" points="92,31.3 65.8,42.7 37.4,31.2 64.8,73.6 	"/>
	<polygon class="st0" points="129.5,55.5 133.6,55.5 133.6,35.8 138.4,35.8 138.4,32.2 124.7,32.2 124.7,35.8 129.5,35.8 	"/>
	<path class="st0" d="M144,44.6c0-2.4,0.4-3.7,2.2-3.7c1.7,0,2,1.1,2,2.9v11.8h4V42.9c0-3.6-1.5-5.6-4.3-5.6c-2.2,0-3.3,0.9-3.9,2
		V31h-4v24.5h4V44.6z"/>
	<path class="st0" d="M161.4,55.8c5.8,0,6.2-5.2,6.2-5.7h-3.8c-0.1,0.6-0.3,2.3-2.3,2.3c-2.2,0-2.5-2.5-2.5-4.8h8.7
		c0-0.3,0.1-1.1,0.1-1.8c0-4.7-1.2-8.5-6.3-8.5c-4.4,0-6.5,3.5-6.5,9.1C155,50.9,155.8,55.8,161.4,55.8z M161.5,40.7
		c2.1,0,2.3,2.2,2.3,3.9h-4.8C159.1,43.4,159.2,40.7,161.5,40.7z"/>
	<path class="st0" d="M181,46h2.4c4.3,0,6.9-2.4,6.9-6.9c0-4.6-2.8-6.9-6.6-6.9H177v23.3h4.1V46z M181,35.5h2.2c1.9,0,3,1.2,3,3.5
		c0,2.5-1,3.6-3.3,3.6h-2V35.5z"/>
	<path class="st0" d="M198.3,55.8c4.3,0,6.6-2.9,6.6-9.4c0-6-2.2-9.1-6.4-9.1c-4.1,0-6.7,2.8-6.7,9.2
		C191.8,53,194.1,55.8,198.3,55.8z M198.4,40.8c1.8,0,2.5,1.8,2.5,5.7c0,3.8-0.6,5.8-2.4,5.8c-1.9,0-2.5-2.1-2.5-5.9
		C195.8,42.7,196.6,40.8,198.4,40.8z"/>
	<path class="st0" d="M213.4,55.8c4.3,0,6.6-2.9,6.6-9.4c0-6-2.2-9.1-6.4-9.1c-4.1,0-6.7,2.8-6.7,9.2
		C206.9,53,209.2,55.8,213.4,55.8z M213.5,40.8c1.8,0,2.5,1.8,2.5,5.7c0,3.8-0.6,5.8-2.4,5.8c-1.9,0-2.5-2.1-2.5-5.9
		C211,42.7,211.7,40.8,213.5,40.8z"/>
	<rect x="222.7" y="31" class="st0" width="4" height="24.5"/>
	<path class="st0" d="M240.5,47.2c0-4-0.1-8.9-0.2-11.6h0.1c0.7,4.5,2,12.9,3.1,19.9h3.7c1.5-7.5,2.7-15.4,3.5-19.8h0.1
		c-0.1,2.6-0.1,7.2-0.1,11.2v8.7h3.9V32.2h-5.9c-1.2,6.2-2.6,13.2-3.1,16.3h0c-0.5-3.4-1.5-9.9-2.7-16.3h-6.1v23.3h3.7V47.2z"/>
	<path class="st0" d="M264,44.6c-4.4,0-6.9,2.2-6.9,5.9c0,2.6,1.3,5.3,4.6,5.3c2.1,0,3.3-0.8,3.9-2c0,0.5,0.1,1.3,0.2,1.7h3.6
		c-0.1-0.8-0.1-3-0.1-3.9v-9.1c0-3.4-1.9-5.1-5.7-5.1c-4.7,0-5.9,2.8-5.9,5.4h3.8c0.1-1.2,0.3-2.3,2-2.3c1.7,0,1.9,1.2,1.9,2.3v1.9
		C265,44.6,264.6,44.6,264,44.6z M265.5,47.6v0.6c0,2.6-0.4,4.2-2.4,4.2c-1.5,0-2-1.2-2-2.3c0-1.5,0.8-2.5,3.1-2.5
		C264.7,47.6,265.1,47.6,265.5,47.6z"/>
	<path class="st0" d="M277.8,52.6c-1.6,0-2.2-1.4-2.3-2.6h-3.9c0,3.2,1.9,5.7,6,5.7c3.9,0,6.1-2,6.1-5.5c0-2.9-1.4-4.3-5.1-5.7
		c-2.1-0.8-2.7-1.3-2.7-2.4c0-1,0.6-1.7,1.6-1.7c1.9,0,1.9,1.8,1.9,2.4h3.8c0-2.3-1.1-5.5-5.7-5.5c-4.1,0-5.6,2.7-5.6,5.1
		c0,2.6,1,4.1,5.1,5.6c2.1,0.8,2.6,1.5,2.6,2.7C279.8,51.9,279.2,52.6,277.8,52.6z"/>
	<path class="st0" d="M286.9,51.5c0,3.2,1.2,4.3,4,4.3c0.6,0,1.7,0,2.5-0.4v-3c-0.3,0.1-0.6,0.1-1,0.1c-1.3,0-1.4-0.6-1.4-1.6V41
		h2.7v-3.4h-2.7v-4.5h-4v4.5h-2.3V41h2.3V51.5z"/>
	<path class="st0" d="M301.4,55.8c5.8,0,6.2-5.2,6.2-5.7h-3.8c-0.1,0.6-0.3,2.3-2.3,2.3c-2.2,0-2.5-2.5-2.5-4.8h8.7
		c0-0.3,0.1-1.1,0.1-1.8c0-4.7-1.2-8.5-6.3-8.5c-4.4,0-6.5,3.5-6.5,9.1C294.9,50.9,295.7,55.8,301.4,55.8z M301.4,40.7
		c2.1,0,2.3,2.2,2.3,3.9H299C299,43.4,299.1,40.7,301.4,40.7z"/>
	<path class="st0" d="M310.4,55.5h4v-9.4c0-3.4,1.6-4.2,4.4-4.2v-4.6c-2.4,0-3.9,1.2-4.6,3.2c0-1.9-0.1-2.6-0.1-2.9h-3.8
		c0,1.3,0,3.1,0,6V55.5z"/>
	<path class="st0" d="M326.3,52.6c-1.6,0-2.2-1.4-2.3-2.6h-3.9c0,3.2,1.9,5.7,6,5.7c3.9,0,6.1-2,6.1-5.5c0-2.9-1.4-4.3-5.1-5.7
		c-2.1-0.8-2.7-1.3-2.7-2.4c0-1,0.6-1.7,1.6-1.7c1.9,0,1.9,1.8,1.9,2.4h3.8c0-2.3-1.1-5.5-5.7-5.5c-4.1,0-5.6,2.7-5.6,5.1
		c0,2.6,1,4.1,5.1,5.6c2.1,0.8,2.6,1.5,2.6,2.7C328.3,51.9,327.7,52.6,326.3,52.6z"/>
	<polygon class="st0" points="94.2,31.2 94.2,33.8 94.1,31.2 65,77.2 36,31.3 35.9,33.8 35.8,31.3 4.5,80.8 8.9,81 35.9,38.1 
		62.8,81 65.6,80.9 67.2,80.9 94.2,38.1 121.1,80.9 121.4,80.9 121.4,81 332.3,81 332.3,77.6 123.5,77.6 	"/>
	<path class="st0" d="M177.3,67.5h1.9c2.4,0,3.6-1.6,3.6-3.9c0-2.4-1.4-3.7-3.4-3.7h-3.2v13.6h1.1V67.5z M177.3,60.9h1.9
		c1.6,0,2.4,1.1,2.4,2.7c0,2-0.9,2.9-2.6,2.9h-1.7V60.9z"/>
	<path class="st0" d="M184.4,63.5v7.2c0,2.6,1.4,3,2.4,3c1.2,0,2.1-0.6,2.4-1.6c0,0.8,0,1.1,0.1,1.4h1c0-0.5,0-1.5,0-2.7v-7.4h-1.1
		v6.1c0,2.4-0.9,3.2-2.1,3.2c-1.2,0-1.6-0.9-1.6-2.3v-7H184.4z"/>
	<path class="st0" d="M193.7,73.5v-5.8c0-1.8,0.9-3.1,2.6-3.2v-1.2c-1.2,0-2.2,0.8-2.6,2c0-1.1,0-1.6,0-1.8h-1.1c0,0.7,0,1.9,0,3.4
		v6.6H193.7z"/>
	<path class="st0" d="M203.4,67.9c0-2.5-0.6-4.6-3-4.6c-2.2,0-3.2,2-3.2,5.2c0,2.5,0.4,5.2,3.2,5.2c2.7,0,3-2.7,3.1-3h-1.1
		c-0.1,0.3-0.3,2-2,2c-1.7,0-2.1-1.8-2.1-4.1h5.2C203.4,68.4,203.4,68.1,203.4,67.9z M198.2,67.7c0-0.7,0.1-3.4,2.1-3.4
		c1.5,0,2,1.4,2,3.4H198.2z"/>
	<path class="st0" d="M217.3,71.9L217.3,71.9c-0.2-1.5-1.7-8.7-2.4-12h-1.1c-0.7,3.3-2.2,10.4-2.4,12h0c-0.2-1.6-1.1-6.6-2.1-12
		h-1.2l2.6,13.6h1.2c0.7-3.2,2.1-9.9,2.3-11.9h0c0.2,1.8,1.6,8.7,2.3,11.9h1.2l2.9-13.6h-1.1C219,63.2,217.6,69.7,217.3,71.9z"/>
	<path class="st0" d="M224.8,67.6c-2.6,0-3.7,1.4-3.7,3.2c0,1.4,0.7,2.9,2.5,2.9c1.2,0,2-0.5,2.3-1.4c0,0.4,0,1,0.1,1.2h1
		c0-0.3-0.1-0.9-0.1-1.6v-5.8c0-1.8-0.8-2.8-2.7-2.8c-2.2,0-2.8,1.4-2.9,2.9h1.1c0.1-0.7,0.1-1.9,1.8-1.9c1.5,0,1.6,1.1,1.6,2v1.4
		C225.6,67.6,225.3,67.6,224.8,67.6z M225.9,68.6v0.6c0,2.4-0.6,3.5-2.1,3.5c-1.1,0-1.7-0.9-1.7-2c0-1.2,0.8-2.2,2.7-2.2
		C225.4,68.6,225.7,68.6,225.9,68.6z"/>
	<path class="st0" d="M229.6,71.7c0,1.5,0.7,1.9,1.7,1.9c0.3,0,0.8,0,1.1-0.2v-0.9c-0.2,0-0.5,0.1-0.7,0.1c-0.8,0-0.9-0.5-0.9-1.2
		v-7h1.8v-1h-1.8v-2.7h-1.1v2.7h-1.4v1h1.4V71.7z"/>
	<path class="st0" d="M236.3,73.7c2.7,0,3-2.7,3.1-3h-1.1c-0.1,0.3-0.3,2-2,2c-1.7,0-2.1-1.8-2.1-4.1h5.2c0-0.3,0-0.6,0-0.7
		c0-2.5-0.6-4.6-3-4.6c-2.2,0-3.2,2-3.2,5.2C233.2,71,233.6,73.7,236.3,73.7z M236.4,64.3c1.5,0,2,1.4,2,3.4h-4.1
		C234.3,67,234.4,64.3,236.4,64.3z"/>
	<path class="st0" d="M242.5,73.5v-5.8c0-1.8,0.9-3.1,2.6-3.2v-1.2c-1.2,0-2.2,0.8-2.6,2c0-1.1,0-1.6,0-1.8h-1.1c0,0.7,0,1.9,0,3.4
		v6.6H242.5z"/>
	<rect x="245.2" y="70.9" class="st0" width="1.1" height="2.6"/>
	<path class="st0" d="M252.1,73.5h1.1v-6h1.9c2.4,0,3.6-1.6,3.6-3.9c0-2.4-1.4-3.7-3.4-3.7h-3.2V73.5z M253.2,60.9h1.9
		c1.6,0,2.4,1.1,2.4,2.7c0,2-0.9,2.9-2.6,2.9h-1.7V60.9z"/>
	<path class="st0" d="M260.3,63.5v7.2c0,2.6,1.4,3,2.4,3c1.2,0,2.1-0.6,2.4-1.6c0,0.8,0,1.1,0.1,1.4h1c0-0.5,0-1.5,0-2.7v-7.4h-1.1
		v6.1c0,2.4-0.9,3.2-2.1,3.2c-1.2,0-1.6-0.9-1.6-2.3v-7H260.3z"/>
	<path class="st0" d="M268.6,66.9v6.6h1.1v-5.8c0-1.8,0.9-3.1,2.6-3.2v-1.2c-1.2,0-2.2,0.8-2.6,2c0-1.1,0-1.6,0-1.8h-1.1
		C268.6,64.2,268.6,65.3,268.6,66.9z"/>
	<path class="st0" d="M279.3,67.9c0-2.5-0.6-4.6-3-4.6c-2.2,0-3.2,2-3.2,5.2c0,2.5,0.4,5.2,3.2,5.2c2.7,0,3-2.7,3.1-3h-1.1
		c-0.1,0.3-0.3,2-2,2c-1.7,0-2.1-1.8-2.1-4.1h5.2C279.3,68.4,279.3,68.1,279.3,67.9z M274.1,67.7c0-0.7,0.1-3.4,2.1-3.4
		c1.5,0,2,1.4,2,3.4H274.1z"/>
	<path class="st0" d="M287.7,72.7c-1.5,0-2.3-1.2-2.4-2.7h-1.1c0.1,2,1,3.7,3.5,3.7c2.3,0,3.4-1.5,3.4-3.7c0-1.9-0.8-3.1-3.1-4.2
		c-1.7-0.8-2.3-1.5-2.3-2.9c0-1.1,0.6-2.1,2-2.1c1.8,0,2,1.7,2.1,2.3h1.1c0-1.5-0.7-3.3-3.1-3.3c-2.1,0-3.2,1.5-3.2,3.3
		c0,2,0.9,2.9,2.9,3.9c1.8,0.9,2.4,1.7,2.4,3.3C290,71.9,289.2,72.7,287.7,72.7z"/>
	<path class="st0" d="M295.8,73.7c2.7,0,3-2.7,3.1-3h-1.1c-0.1,0.3-0.3,2-2,2c-1.7,0-2.1-1.8-2.1-4.1h5.2c0-0.3,0-0.6,0-0.7
		c0-2.5-0.6-4.6-3-4.6c-2.2,0-3.2,2-3.2,5.2C292.7,71,293.1,73.7,295.8,73.7z M295.9,64.3c1.5,0,2,1.4,2,3.4h-4.1
		C293.8,67,293.9,64.3,295.9,64.3z"/>
	<path class="st0" d="M301.9,73.5v-5.8c0-1.8,0.9-3.1,2.6-3.2v-1.2c-1.2,0-2.2,0.8-2.6,2c0-1.1,0-1.6,0-1.8h-1.1c0,0.7,0,1.9,0,3.4
		v6.6H301.9z"/>
	<path class="st0" d="M305.5,63.5l2.7,10.1h1.2l2.8-10.1h-1.1c-0.4,1.7-2.1,7.8-2.3,8.7h0c-0.2-1.1-1.3-5.3-2.2-8.7H305.5z"/>
	<rect x="313.6" y="63.5" class="st0" width="1.1" height="10.1"/>
	<rect x="313.6" y="59.3" class="st0" width="1.1" height="2"/>
	<path class="st0" d="M316.6,68.5c0,2.9,0.7,5.2,3.1,5.2c2.7,0,2.9-2.7,3-3.1h-1.1c-0.1,0.5-0.3,2.1-1.8,2.1c-1.5,0-2.1-1.6-2.1-4.2
		c0-2.4,0.6-4.2,2.2-4.2c1.5,0,1.7,1.7,1.7,2.1h1.1c0-0.4-0.1-3.1-2.8-3.1C317.5,63.3,316.6,65.6,316.6,68.5z"/>
	<path class="st0" d="M330.4,67.9c0-2.5-0.6-4.6-3-4.6c-2.2,0-3.2,2-3.2,5.2c0,2.5,0.4,5.2,3.2,5.2c2.7,0,3-2.7,3.1-3h-1.1
		c-0.1,0.3-0.3,2-2,2c-1.7,0-2.1-1.8-2.1-4.1h5.2C330.4,68.4,330.4,68.1,330.4,67.9z M325.3,67.7c0-0.7,0.1-3.4,2.1-3.4
		c1.5,0,2,1.4,2,3.4H325.3z"/>
	<polygon class="st0" points="145.6,73.7 153.1,73.7 153.1,60 145.6,60.1 	"/>
	<polygon class="st0" points="135.4,73.7 141.7,73.7 141.7,60.1 135.4,60.2 	"/>
	<polygon class="st0" points="131.5,73.7 131.5,60.2 119,60.3 126.3,73.7 	"/>
	<polygon class="st0" points="156.9,73.7 164.6,73.7 164.6,60 156.9,60 	"/>
	<polygon class="st0" points="172.9,59.9 168.5,59.9 168.5,73.7 172.9,73.7 	"/>
</g>
</svg>
