<?xml version="1.0" encoding="utf-8"?>
<!-- Generator: Adobe Illustrator 25.1.0, SVG Export Plug-In . SVG Version: 6.00 Build 0)  -->
<svg version="1.1" id="Layer_1" xmlns="http://www.w3.org/2000/svg" xmlns:xlink="http://www.w3.org/1999/xlink" x="0px" y="0px"
	 viewBox="0 0 396.9 595.3" style="enable-background:new 0 0 396.9 595.3;" xml:space="preserve">
<style type="text/css">
	.st0{fill:#FFFFFF;}
	.st1{fill:#F2762D;}
	.st2{clip-path:url(#SVGID_2_);}
	.st3{font-family:'Poppins-Regular';}
	.st4{font-size:63px;}
	.st5{font-family:'Poppins-SemiBold';}
	.st6{font-size:85px;}
	.st7{fill:#2694D2;}
	.st8{font-size:7.9px;}
	.st9{font-family:'Poppins-Bold';}
	.st10{font-size:24px;}
	.st11{font-family:'BrushScriptMT';}
	.st12{font-size:23px;}
	.st13{fill-rule:evenodd;clip-rule:evenodd;fill:#2494D2;}
	.st14{font-size:34px;}
	.st15{clip-path:url(#SVGID_6_);}
	.st16{font-size:16px;}
	.st17{clip-path:url(#SVGID_8_);}
</style>
<g>
	<rect x="0.6" y="0" class="st0" width="395.4" height="595.2"/>
	<rect x="0.6" y="506.3" class="st1" width="395.9" height="29.1"/>
	<g>
		<g>
			<g>
				<defs>
					<rect id="SVGID_1_" y="0" width="396.9" height="171.8"/>
				</defs>
				<clipPath id="SVGID_2_">
					<use xlink:href="#SVGID_1_"  style="overflow:visible;"/>
				</clipPath>
				<g class="st2">
					
						<image style="overflow:visible;enable-background:new    ;" width="1600" height="1600" xlink:href="C:\Users\Crn96\Downloads\1600px_COLOURBOX34432642.jpg"  transform="matrix(0.5315 0 0 0.5315 -346.6631 -612.364)">
					</image>
				</g>
			</g>
		</g>
	</g>
	<g>
		<text transform="matrix(0.8647 0 0 1 106.4932 68.2506)" class="st0 st3 st4">HEALTH</text>
		<text transform="matrix(0.8647 0 0 1 107.0708 137.8253)" class="st0 st5 st6">EXPO</text>
	</g>
	<text transform="matrix(0.8647 0 0 1 154.9561 368.632)" class="st7 st3 st8">Glucose and BP Screening</text>
	<rect x="132.5" y="360.4" class="st1" width="11.3" height="11.3"/>
	<text transform="matrix(0.8647 0 0 1 154.9561 385.0099)" class="st7 st3 st8">Nutrition and diet education</text>
	<rect x="132.5" y="376.8" class="st1" width="11.3" height="11.3"/>
	<text transform="matrix(0.8647 0 0 1 154.9561 401.3888)" class="st7 st3 st8">Stress Massage</text>
	<rect x="132.5" y="393.2" class="st1" width="11.3" height="11.3"/>
	<text transform="matrix(0.8647 0 0 1 154.9561 417.7667)" class="st7 st3 st8">BMI Check</text>
	<rect x="132.5" y="409.6" class="st1" width="11.3" height="11.3"/>
	<text transform="matrix(0.8647 0 0 1 289.1582 401.3888)" class="st7 st3 st8">Lung Capacity Check</text>
	<text transform="matrix(0.8647 0 0 1 288.4062 368.632)" class="st7 st3 st8">Exercises</text>
	<rect x="266" y="359.4" class="st1" width="11.3" height="11.3"/>
	<rect x="266" y="375.8" class="st1" width="11.3" height="11.3"/>
	<rect x="266" y="392.2" class="st1" width="11.3" height="11.3"/>
	<rect x="266" y="408.6" class="st1" width="11.3" height="11.3"/>
	<text transform="matrix(0.8647 0 0 1 289.6841 415.8409)" class="st7 st3 st8">And Many More</text>
	<g>
		<text transform="matrix(1 0 0 1 132.5245 348.7358)" class="st1 st9 st10">Services offered</text>
	</g>
	<g>
		<text transform="matrix(1 0 0 1 132.7097 528.0808)" class="st0 st11 st12">Brought to you by</text>
	</g>
	<rect x="0.6" y="259.6" class="st1" width="396.3" height="32.5"/>
	<g>
		<defs>
			<rect id="SVGID_3_" x="0.6" y="432.2" width="396.9" height="53"/>
		</defs>
		<clipPath id="SVGID_4_">
			<use xlink:href="#SVGID_3_"  style="overflow:visible;"/>
		</clipPath>
		<g style="clip-path:url(#SVGID_4_);">
			
				<image style="overflow:visible;" width="1600" height="1600" xlink:href="C:\Users\Crn96\Downloads\1600px_COLOURBOX34432642.jpg"  transform="matrix(1 0 0 1 -657.0361 -947.116)">
			</image>
		</g>
	</g>
	<text transform="matrix(1 0 0 1 60.436 281.1589)" class="st0 st11 st10">Sunday 15 October 2023, 11 am </text>
	<g>
		
			<image style="overflow:visible;enable-background:new    ;" width="500" height="500" xlink:href="C:\Users\Crn96\Downloads\Logo-final.png"  transform="matrix(8.503937e-02 0 0 8.503937e-02 315.8338 541.1678)">
		</image>
		<g>
			<g transform="translate(20 20)">
				<path class="st13" d="M23.7,552c0.1,0,0.2-0.1,0.2-0.2c0-0.1-0.1-0.2-0.2-0.2h-0.1v0.4H23.7L23.7,552z M23.3,551.4h0.4
					c0.3,0,0.4,0.1,0.4,0.4c0,0.2-0.1,0.3-0.2,0.3l0.3,0.5H24l-0.3-0.5h-0.2v0.5h-0.2V551.4z M24.6,552c0-0.5-0.4-0.9-0.9-0.9
					s-0.9,0.4-0.9,0.9s0.4,0.9,0.9,0.9S24.6,552.5,24.6,552L24.6,552z M22.7,552c0-0.6,0.4-1,1-1s1,0.4,1,1s-0.4,1-1,1
					S22.7,552.6,22.7,552L22.7,552z M10.8,551.9c0-1.2,1.1-2.4,2.4-3.7l1.5-1.5c1-1,3-3,2.1-4.9c-0.1-0.1,0-0.2,0.1-0.1
					c1.3,1.6,0.8,4-1.7,6.5l-2.1,2.1c-1.3,1.3-1.9,1.9-2.3,3.5c0,0.1-0.2,0.1-0.2,0L10.8,551.9z M6,546.9c-1.5,1.5-1.8,3.2-0.7,4.2
					c0.1,0.1,0,0.2-0.1,0.1c-1.5-0.7-2.6-3.1-0.1-5.6l5-5c1.3-1.3,1.9-1.9,2.3-3.5c0-0.1,0.2-0.1,0.2,0v1.9c0,1.2-1.1,2.4-2.4,3.7
					L6,546.9z M3.4,548.9c-1.3-1.6-0.8-4,1.7-6.5l5.2-5.2c1.3-1.3,1.9-1.9,2.3-3.5c0-0.1,0.2-0.1,0.2,0v1.9c0,1.2-1.1,2.4-2.4,3.7
					l-4.6,4.6c-1,1-3,3-2.1,4.9C3.5,549,3.5,549,3.4,548.9z M2.5,545.5c-0.5-1.5-0.2-3.8,2-5.9l5.7-5.7c1.3-1.3,1.9-1.9,2.3-3.5
					c0-0.1,0.2-0.1,0.2,0v1.9c0,1.2-1.1,2.4-2.4,3.7l-4.9,4.9c-2.3,2.3-2.6,3.4-2.6,4.6C2.6,545.7,2.5,545.7,2.5,545.5L2.5,545.5z
					 M14.2,543.8c1.5-1.5,1.8-3.2,0.7-4.2c-0.1-0.1,0-0.2,0.1-0.1c1.5,0.7,2.6,3.1,0.1,5.6l-1.9,1.9c-1.3,1.3-1.9,1.9-2.3,3.5
					c0,0.1-0.2,0.1-0.2,0v-1.9c0-1.2,1.1-2.4,2.4-3.7L14.2,543.8z M17.8,545.2c0.5,1.5,0.2,3.8-2,5.9l-2.6,2.6L13,554h-1.8
					c0.4-0.8,1.2-1.5,2-2.3l1.8-1.8c2.3-2.3,2.6-3.4,2.6-4.6C17.6,545.1,17.7,545.1,17.8,545.2z M10.9,557.2c0,0.1-0.2,0.1-0.2,0
					v-1.9c0,0,0-0.1,0.1-0.1h1C11.4,555.8,11.1,556.4,10.9,557.2L10.9,557.2z M15.2,557.2c-2.5-0.4-3.8,0.8-4.2,1.9
					c0,0.1-0.2,0.1-0.2,0v-0.3c0-1.2,1.1-2.4,2.4-3.7l2.2-2.2l5.8,1c0,0,1.7,1.7,3.1,3.1c2.7-3.2,4.4-7.4,4.4-11.9
					c0-10.2-8.2-18.4-18.4-18.4S-8.3,534.8-8.3,545c0,4.5,1.6,8.7,4.4,11.9c1.4-1.4,3.1-3.1,3.1-3.1l6.6-1.1c3-0.5,3.8,0.2,3.8,1.2
					c0,0,0,0.1-0.1,0.1H7.6c0,0-0.1,0-0.1,0.1v1.1c0,0,0,0.1,0.1,0.1h1.9c0,0,0.1,0,0.1,0.1v3.7c0,0.1-0.1,0.1-0.2,0
					c-0.4-1.1-1.8-2.3-4.2-1.9c0,0-4.3,0.7-7.5,1.3c3.3,3.1,7.7,4.9,12.6,4.9s9.3-1.9,12.6-4.9C20.2,558.1,17.7,557.6,15.2,557.2
					L15.2,557.2z"/>
			</g>
			<g>
				<g>
					<path class="st7" d="M59.9,552c-0.1-0.5-0.3-1-0.5-1.2c-0.2-0.4-0.4-0.5-1.1-0.5h-1.4v7.3c0,1.2,0.1,1.3,1.5,1.4v0.4h-4.1V559
						c1.3-0.1,1.4-0.2,1.4-1.4v-7.3h-1.3c-0.8,0-1,0.1-1.2,0.5c-0.2,0.3-0.3,0.7-0.5,1.2h-0.4c0.1-0.9,0.2-1.9,0.2-2.7h0.3
						c0.2,0.4,0.4,0.3,0.8,0.3h5.6c0.4,0,0.5-0.1,0.7-0.3h0.3c0,0.7,0.1,1.8,0.1,2.7H59.9z"/>
					<path class="st7" d="M65,554.6c-0.3-0.9-0.6-1.5-1.5-1.5c-0.5,0-0.9,0.4-0.9,1s0.4,0.9,1.2,1.3c1.2,0.6,1.8,1.1,1.8,2.1
						c0,1.4-1.2,2.1-2.3,2.1c-0.7,0-1.4-0.2-1.7-0.4c-0.1-0.4-0.2-1.3-0.3-1.8l0.4-0.1c0.3,1,0.8,1.7,1.7,1.7c0.5,0,1-0.4,1-1
						c0-0.7-0.4-1-1.1-1.4c-1-0.5-1.8-1-1.8-2.1s0.9-1.9,2.2-1.9c0.6,0,1.1,0.2,1.4,0.2c0,0.4,0.1,1.3,0.2,1.7L65,554.6z"/>
					<path class="st7" d="M70.5,559.4V559c0.8-0.1,0.9-0.2,0.9-1.2v-2.5c0-1.2-0.5-1.9-1.4-1.9c-0.5,0-1.1,0.3-1.5,0.8v3.5
						c0,1,0.1,1.1,1,1.2v0.4h-3.1V559c0.8-0.1,1-0.2,1-1.2v-7.2c0-0.8,0-1-1-1.1v-0.4c0.8-0.1,1.6-0.3,2.1-0.5c0,0.6,0,1.2,0,1.9
						v3.3c0.5-0.5,1.3-1.1,2.1-1.1c1.2,0,2,0.8,2,2.6v2.6c0,1,0.1,1.1,0.9,1.1v0.4L70.5,559.4L70.5,559.4z"/>
					<path class="st7" d="M83.7,553.3c-0.7,0.1-0.9,0.3-1.1,1.1c-0.4,1.2-1.1,3.2-1.7,5.2h-0.4c-0.6-1.6-1.1-3.2-1.7-4.7
						c-0.5,1.4-1.2,3-1.7,4.7h-0.4c-0.5-1.8-1-3.6-1.6-5.4c-0.3-0.8-0.4-0.9-1.1-1v-0.4h3v0.4c-0.9,0.2-0.9,0.2-0.7,0.9
						c0.3,1.2,0.7,2.4,1.1,3.5c0.6-1.5,1.1-3.1,1.7-4.8h0.4c0.5,1.6,1.1,3.2,1.7,4.8c0.3-0.9,0.8-2.4,1-3.5c0.2-0.8,0.1-0.9-0.9-1
						v-0.4H84v0.6L83.7,553.3L83.7,553.3z"/>
					<path class="st7" d="M88.5,559.6c-0.2,0-0.5-0.1-0.7-0.3s-0.3-0.4-0.3-0.7c-0.6,0.4-1.3,1-1.7,1c-1,0-1.7-0.9-1.7-1.8
						c0-0.7,0.4-1.2,1.2-1.5c0.9-0.3,1.9-0.7,2.2-1V555c0-1.1-0.5-1.7-1.2-1.7c-0.3,0-0.5,0.2-0.7,0.3c-0.2,0.2-0.3,0.5-0.4,1
						c-0.1,0.2-0.2,0.3-0.4,0.3c-0.3,0-0.6-0.3-0.6-0.7c0-0.2,0.2-0.4,0.5-0.6c0.4-0.3,1.2-0.9,2-1c0.4,0,0.9,0.1,1.2,0.4
						c0.5,0.4,0.7,1,0.7,1.7v2.9c0,0.7,0.2,0.9,0.5,0.9c0.2,0,0.4-0.1,0.5-0.2l0.1,0.4L88.5,559.6z M87.5,555.8
						c-0.3,0.2-1,0.5-1.3,0.6c-0.5,0.3-0.9,0.5-0.9,1.1c0,0.8,0.6,1.2,1,1.2s0.9-0.2,1.2-0.5C87.5,557.5,87.5,556.5,87.5,555.8z"/>
					<path class="st7" d="M94.4,559.4V559c0.8-0.1,0.9-0.2,0.9-1.2v-2.5c0-1.1-0.4-1.8-1.3-1.8c-0.6,0-1.1,0.4-1.6,0.8v3.5
						c0,1,0.1,1.1,0.9,1.2v0.4h-3.1V559c0.9-0.1,1-0.2,1-1.2v-3.1c0-1-0.1-1-0.9-1.2v-0.4c0.7-0.1,1.4-0.3,2-0.6c0,0.3,0,0.8,0,1.2
						c0.3-0.2,0.6-0.4,1-0.7s0.8-0.5,1.2-0.5c1.1,0,1.8,0.9,1.8,2.3v2.8c0,1,0.1,1.1,0.9,1.2v0.4h-2.8V559.4z"/>
					<path class="st7" d="M103.4,558.2c-0.9,1.2-1.9,1.5-2.4,1.5c-1.7,0-2.8-1.5-2.8-3.2c0-1,0.3-2,0.9-2.6c0.6-0.7,1.4-1.1,2.1-1.1
						c1.2,0,2.2,1.1,2.2,2.3c0,0.3-0.1,0.4-0.3,0.5c-0.3,0.1-2.1,0.2-3.8,0.3c0,2,1.1,2.8,2.1,2.8c0.6,0,1.1-0.3,1.6-0.8
						L103.4,558.2z M100.9,553.2c-0.7,0-1.3,0.6-1.5,1.9c0.8,0,1.6,0,2.4,0c0.3,0,0.3-0.1,0.3-0.3
						C102.2,554,101.7,553.2,100.9,553.2z"/>
					<path class="st7" d="M116.3,557c-0.2,0.7-0.6,1.8-0.8,2.3c-0.4,0.1-1.5,0.4-2.6,0.4c-3.4,0-5.1-2.4-5.1-5
						c0-3.1,2.2-5.2,5.4-5.2c1.2,0,2.2,0.3,2.7,0.3c0.1,0.7,0.2,1.6,0.3,2.3l-0.4,0.1c-0.3-1-0.6-1.6-1.3-1.9
						c-0.4-0.2-1-0.3-1.5-0.3c-2.3,0-3.6,1.8-3.6,4.3c0,2.9,1.4,4.8,3.7,4.8c1.4,0,2.2-0.7,2.9-2.2L116.3,557z"/>
					<path class="st7" d="M122.6,558.2c-0.9,1.2-1.9,1.5-2.4,1.5c-1.7,0-2.8-1.5-2.8-3.2c0-1,0.3-2,0.9-2.6c0.6-0.7,1.4-1.1,2.1-1.1
						c1.2,0,2.2,1.1,2.2,2.3c0,0.3-0.1,0.4-0.3,0.5c-0.3,0.1-2.1,0.2-3.8,0.3c0,2,1.1,2.8,2.1,2.8c0.6,0,1.1-0.3,1.6-0.8
						L122.6,558.2z M120.1,553.2c-0.7,0-1.3,0.6-1.5,1.9c0.8,0,1.6,0,2.4,0c0.3,0,0.3-0.1,0.3-0.3
						C121.4,554,120.9,553.2,120.1,553.2z"/>
					<path class="st7" d="M127.6,559.4V559c0.8-0.1,0.9-0.2,0.9-1.2v-2.5c0-1.1-0.4-1.8-1.3-1.8c-0.6,0-1.1,0.4-1.6,0.8v3.5
						c0,1,0.1,1.1,0.9,1.2v0.4h-3.1V559c0.9-0.1,1-0.2,1-1.2v-3.1c0-1-0.1-1-0.9-1.2v-0.4c0.7-0.1,1.4-0.3,2-0.6c0,0.3,0,0.8,0,1.2
						c0.3-0.2,0.6-0.4,1-0.7s0.8-0.5,1.2-0.5c1.1,0,1.8,0.9,1.8,2.3v2.8c0,1,0.1,1.1,0.9,1.2v0.4h-2.8
						C127.6,559.2,127.6,559.4,127.6,559.4z"/>
					<path class="st7" d="M134.1,559.4c-0.2,0.1-0.5,0.2-0.6,0.2c-0.9,0-1.4-0.6-1.4-1.8v-4.4h-1l-0.1-0.2l0.4-0.4h0.7v-1.3
						c0.3-0.3,0.7-0.7,1-1h0.2c0,0.6,0,1.5,0,2.2h1.6c0.1,0.2,0.1,0.5-0.1,0.6h-1.5v3.8c0,1.2,0.5,1.4,0.8,1.4s0.7-0.1,0.9-0.2
						l0.1,0.4L134.1,559.4z"/>
					<path class="st7" d="M138.9,559.4h-3.3V559c0.9-0.1,1-0.2,1-1.1v-3.1c0-1-0.1-1-0.9-1.1v-0.4c0.7-0.1,1.3-0.3,2-0.6
						c0,0.5,0,1.2,0,1.6c0.5-0.8,1.1-1.6,1.8-1.6c0.5,0,0.8,0.3,0.8,0.7c0,0.3-0.2,0.7-0.5,0.8c-0.1,0.1-0.3,0.1-0.4,0
						c-0.2-0.2-0.4-0.4-0.6-0.4c-0.3,0-0.8,0.5-1.1,1.2v2.8c0,1,0.1,1.1,1.2,1.2V559.4z"/>
					<path class="st7" d="M145.5,559.6c-0.2,0-0.5-0.1-0.7-0.3s-0.3-0.4-0.3-0.7c-0.6,0.4-1.3,1-1.7,1c-1,0-1.7-0.9-1.7-1.8
						c0-0.7,0.4-1.2,1.2-1.5c0.9-0.3,1.9-0.7,2.2-1V555c0-1.1-0.5-1.7-1.2-1.7c-0.3,0-0.5,0.2-0.7,0.3c-0.2,0.2-0.3,0.5-0.4,1
						c-0.1,0.2-0.2,0.3-0.4,0.3c-0.3,0-0.6-0.3-0.6-0.7c0-0.2,0.2-0.4,0.5-0.6c0.4-0.3,1.2-0.9,2-1c0.4,0,0.9,0.1,1.2,0.4
						c0.5,0.4,0.7,1,0.7,1.7v2.9c0,0.7,0.2,0.9,0.5,0.9c0.2,0,0.4-0.1,0.5-0.2l0.1,0.4L145.5,559.6z M144.5,555.8
						c-0.3,0.2-1,0.5-1.3,0.6c-0.5,0.3-0.9,0.5-0.9,1.1c0,0.8,0.6,1.2,1,1.2s0.9-0.2,1.2-0.5C144.5,557.5,144.5,556.5,144.5,555.8z"
						/>
					<path class="st7" d="M147.1,559.4V559c0.9-0.1,1-0.2,1-1.2v-7.2c0-0.9-0.1-1-1-1.1v-0.4c0.8-0.1,1.6-0.3,2.1-0.5
						c0,0.7,0,1.4,0,2.1v7.1c0,1,0.1,1.1,1,1.2v0.4L147.1,559.4L147.1,559.4z"/>
					<path class="st7" d="M57.4,570c-0.2-1-0.6-2-2-2c-1.1,0-1.5,0.9-1.5,1.6c0,1,0.6,1.6,1.8,2.2c1.7,0.9,2.4,1.6,2.4,3
						c0,1.6-1.3,2.8-3.1,2.8c-0.9,0-1.6-0.3-2.2-0.5c-0.1-0.4-0.3-1.4-0.4-2.2l0.4-0.1c0.3,1,0.9,2.3,2.4,2.3c1,0,1.6-0.8,1.6-1.7
						c0-1.2-0.6-1.6-1.8-2.3c-1.5-0.9-2.3-1.6-2.3-3c0-1.3,1.1-2.6,2.9-2.6c0.8,0,1.6,0.2,1.9,0.3c0.1,0.5,0.1,1.1,0.2,2.1L57.4,570
						z"/>
					<path class="st7" d="M63.4,567.7c2,0,3.3,0.4,4.1,1.3c0.7,0.7,1.2,1.8,1.2,3.2c0,1.8-0.7,3.2-1.8,4c-1.1,0.9-2.5,1.2-4.2,1.2
						h-3.3V577c1.2-0.1,1.3-0.2,1.3-1.5v-6c0-1.3-0.2-1.4-1.3-1.5v-0.4h4C63.4,567.6,63.4,567.7,63.4,567.7z M62,575.4
						c0,1.1,0.5,1.4,1.5,1.4c2.6,0,3.9-1.8,3.9-4.5c0-1.6-0.5-2.9-1.6-3.6c-0.7-0.4-1.5-0.6-2.4-0.6c-0.6,0-1,0.1-1.1,0.2
						c-0.1,0.1-0.2,0.3-0.2,0.8v6.3L62,575.4L62,575.4z"/>
					<path class="st7" d="M74.8,577.4V577c0.9-0.1,1-0.3,0.8-0.8c-0.2-0.6-0.5-1.3-0.8-2.3h-3.1c-0.2,0.7-0.4,1.3-0.6,1.9
						c-0.3,1-0.1,1.1,1,1.2v0.4H69V577c0.9-0.1,1.1-0.2,1.6-1.6l2.9-7.9l0.5-0.1c0.9,2.6,1.9,5.4,2.8,8c0.5,1.3,0.6,1.4,1.6,1.5v0.4
						L74.8,577.4L74.8,577.4z M73.4,569.4c-0.5,1.3-0.9,2.7-1.4,3.8h2.7L73.4,569.4z"/>
					<path class="st7" d="M90.5,575c-0.2,0.7-0.6,1.8-0.8,2.3c-0.4,0.1-1.5,0.4-2.6,0.4c-3.4,0-5.1-2.4-5.1-5c0-3.1,2.2-5.2,5.4-5.2
						c1.2,0,2.2,0.3,2.7,0.3c0.1,0.7,0.2,1.6,0.3,2.3l-0.4,0.1c-0.3-1-0.6-1.6-1.3-1.9c-0.4-0.2-1-0.3-1.5-0.3
						c-2.3,0-3.6,1.8-3.6,4.3c0,2.9,1.4,4.8,3.7,4.8c1.4,0,2.2-0.7,2.9-2.2L90.5,575z"/>
					<path class="st7" d="M95.5,577.4V577c0.8-0.1,0.9-0.2,0.9-1.2v-2.5c0-1.2-0.5-1.9-1.4-1.9c-0.5,0-1.1,0.3-1.5,0.8v3.5
						c0,1,0.1,1.1,1,1.2v0.4h-3.1V577c0.8-0.1,1-0.2,1-1.2v-7.2c0-0.8,0-1-1-1.1v-0.4c0.8-0.1,1.6-0.3,2.1-0.5c0,0.6,0,1.2,0,1.9
						v3.3c0.5-0.5,1.3-1.1,2.1-1.1c1.2,0,2,0.8,2,2.6v2.6c0,1,0.1,1.1,0.9,1.1v0.4L95.5,577.4L95.5,577.4z"/>
					<path class="st7" d="M106.2,577.1c-0.7,0.1-1.4,0.3-2.2,0.5c0-0.2,0-0.8,0-1.2c-0.8,0.7-1.4,1.2-2.2,1.2c-1,0-1.8-0.6-1.8-2.2
						v-2.9c0-0.8-0.1-0.9-0.5-1l-0.4-0.1V571c0.6,0,1.5-0.2,2-0.3c0,0.5,0,1.2,0,2.2v2c0,1.3,0.7,1.7,1.3,1.7c0.5,0,1.1-0.2,1.5-0.7
						v-3.5c0-0.8-0.2-0.9-0.7-1l-0.5-0.1V571c0.9,0,1.9-0.2,2.2-0.3v5c0,0.8,0.1,0.9,0.7,0.9h0.4v0.5L106.2,577.1L106.2,577.1z"/>
					<path class="st7" d="M110.1,577.4h-3.3V577c0.9-0.1,1-0.2,1-1.1v-3.1c0-1-0.1-1-0.9-1.1v-0.4c0.7-0.1,1.3-0.3,2-0.6
						c0,0.5,0,1.2,0,1.6c0.5-0.8,1.1-1.6,1.8-1.6c0.5,0,0.8,0.3,0.8,0.7c0,0.3-0.2,0.7-0.5,0.8c-0.1,0.1-0.3,0.1-0.4,0
						c-0.2-0.2-0.4-0.4-0.6-0.4c-0.3,0-0.8,0.5-1.1,1.2v2.8c0,1,0.1,1.1,1.2,1.2V577.4z"/>
					<path class="st7" d="M117.5,576.1c-0.6,0.9-1.6,1.5-2.4,1.5c-1.8,0-2.9-1.5-2.9-3.1c0-1.2,0.5-2.2,1.4-2.9
						c0.8-0.6,1.6-0.9,2.2-0.9s1.1,0.2,1.3,0.4c0.2,0.2,0.2,0.3,0.2,0.4c0,0.4-0.4,0.7-0.5,0.7s-0.1,0-0.3-0.1
						c-0.4-0.4-0.9-0.6-1.4-0.6c-0.9,0-1.8,0.8-1.8,2.4c0,2.1,1.3,2.8,2.2,2.8c0.6,0,1.1-0.2,1.7-0.8L117.5,576.1z"/>
					<path class="st7" d="M122.1,577.4V577c0.8-0.1,0.9-0.2,0.9-1.2v-2.5c0-1.2-0.5-1.9-1.4-1.9c-0.5,0-1.1,0.3-1.5,0.8v3.5
						c0,1,0.1,1.1,1,1.2v0.4H118V577c0.8-0.1,1-0.2,1-1.2v-7.2c0-0.8,0-1-1-1.1v-0.4c0.8-0.1,1.6-0.3,2.1-0.5c0,0.6,0,1.2,0,1.9v3.3
						c0.5-0.5,1.3-1.1,2.1-1.1c1.2,0,2,0.8,2,2.6v2.6c0,1,0.1,1.1,0.9,1.1v0.4L122.1,577.4L122.1,577.4z"/>
				</g>
			</g>
		</g>
		<g>
			<g transform="translate(20 20)">
				<path class="st13" d="M175.8,551.1c0.1,0,0.2-0.1,0.2-0.2c0-0.1-0.1-0.2-0.2-0.2h-0.1v0.4H175.8L175.8,551.1z M175.4,550.6h0.4
					c0.3,0,0.4,0.1,0.4,0.4c0,0.2-0.1,0.3-0.2,0.3l0.3,0.5h-0.2l-0.3-0.5h-0.2v0.5h-0.2V550.6z M176.7,551.2c0-0.5-0.4-0.9-0.9-0.9
					s-0.9,0.4-0.9,0.9s0.4,0.9,0.9,0.9C176.3,552.1,176.7,551.7,176.7,551.2L176.7,551.2z M174.8,551.2c0-0.6,0.4-1,1-1s1,0.4,1,1
					s-0.4,1-1,1S174.8,551.8,174.8,551.2L174.8,551.2z M162.8,551.1c0-1.2,1.1-2.4,2.4-3.7l1.5-1.5c1-1,3-3,2.1-4.9
					c-0.1-0.1,0-0.2,0.1-0.1c1.3,1.6,0.8,4-1.7,6.5l-2.1,2.1c-1.3,1.3-1.9,1.9-2.3,3.5c0,0.1-0.2,0.1-0.2,0v-1.9L162.8,551.1
					L162.8,551.1z M158.1,546.1c-1.5,1.5-1.8,3.2-0.7,4.2c0.1,0.1,0,0.2-0.1,0.1c-1.5-0.7-2.6-3.1-0.1-5.6l5-5
					c1.3-1.3,1.9-1.9,2.3-3.5c0-0.1,0.2-0.1,0.2,0v1.9c0,1.2-1.1,2.4-2.4,3.7L158.1,546.1z M155.4,548.1c-1.3-1.6-0.8-4,1.7-6.5
					l5.2-5.2c1.3-1.3,1.9-1.9,2.3-3.5c0-0.1,0.2-0.1,0.2,0v1.9c0,1.2-1.1,2.4-2.4,3.7l-4.6,4.6c-1,1-3,3-2.1,4.9
					C155.6,548.2,155.5,548.2,155.4,548.1z M154.6,544.7c-0.5-1.5-0.2-3.8,2-5.9l5.7-5.7c1.3-1.3,1.9-1.9,2.3-3.5
					c0-0.1,0.2-0.1,0.2,0v1.9c0,1.2-1.1,2.4-2.4,3.7l-4.9,4.9c-2.3,2.3-2.6,3.4-2.6,4.6C154.7,544.8,154.6,544.8,154.6,544.7
					L154.6,544.7z M166.3,543c1.5-1.5,1.8-3.2,0.7-4.2c-0.1-0.1,0-0.2,0.1-0.1c1.5,0.7,2.6,3.1,0.1,5.6l-1.9,1.9
					c-1.3,1.3-1.9,1.9-2.3,3.5c0,0.1-0.2,0.1-0.2,0v-1.9c0-1.2,1.1-2.4,2.4-3.7L166.3,543z M169.8,544.4c0.5,1.5,0.2,3.8-2,5.9
					l-2.6,2.6l-0.2,0.2h-1.8c0.4-0.8,1.2-1.5,2-2.3l1.8-1.8c2.3-2.3,2.6-3.4,2.6-4.6C169.7,544.3,169.8,544.3,169.8,544.4z
					 M163,556.4c0,0.1-0.2,0.1-0.2,0v-1.9c0,0,0-0.1,0.1-0.1h1C163.4,555,163.2,555.6,163,556.4L163,556.4z M167.2,556.4
					c-2.5-0.4-3.8,0.8-4.2,1.9c0,0.1-0.2,0.1-0.2,0V558c0-1.2,1.1-2.4,2.4-3.7l2.2-2.2l5.8,1c0,0,1.7,1.7,3.1,3.1
					c2.7-3.2,4.4-7.4,4.4-11.9c0-10.2-8.2-18.4-18.4-18.4s-18.4,8.2-18.4,18.4c0,4.5,1.6,8.7,4.4,11.9c1.4-1.4,3.1-3.1,3.1-3.1
					l6.6-1.1c3-0.5,3.8,0.2,3.8,1.2c0,0,0,0.1-0.1,0.1h-1.9c0,0-0.1,0-0.1,0.1v1.1c0,0,0,0.1,0.1,0.1h1.9c0,0,0.1,0,0.1,0.1v3.7
					c0,0.1-0.1,0.1-0.2,0c-0.4-1.1-1.8-2.3-4.2-1.9c0,0-4.3,0.7-7.5,1.3c3.3,3.1,7.7,4.9,12.6,4.9s9.3-1.9,12.6-4.9
					C172.2,557.2,169.7,556.8,167.2,556.4L167.2,556.4z"/>
			</g>
			<g>
				<g>
					<path class="st7" d="M212.9,558.7c-0.2,0-0.3,0-0.5,0c-1-0.1-1.6-0.4-2.2-1.3c-0.5-0.8-1-1.7-1.5-2.5c-0.3-0.5-0.5-0.6-1.2-0.6
						H207v2.4c0,1.3,0.2,1.3,1.3,1.5v0.4h-3.8v-0.4c1.2-0.1,1.3-0.2,1.3-1.5v-6c0-1.3-0.2-1.3-1.3-1.5v-0.4h3.6c1,0,1.7,0.1,2.3,0.5
						s1,1.1,1,2c0,1.3-0.8,2.1-1.8,2.6c0.3,0.5,0.9,1.5,1.3,2.1c0.5,0.8,0.8,1.2,1.1,1.5c0.4,0.4,0.7,0.6,1,0.7L212.9,558.7z
						 M207.7,553.9c0.7,0,1.2-0.1,1.6-0.4c0.6-0.4,0.8-1,0.8-1.8c0-1.6-1-2.2-2.1-2.2c-0.4,0-0.7,0.1-0.8,0.2
						c-0.1,0.1-0.2,0.3-0.2,0.6v3.7L207.7,553.9L207.7,553.9z"/>
					<path class="st7" d="M216.3,551.8c1.8,0,3.1,1.4,3.1,3.4c0,2.4-1.7,3.6-3.1,3.6c-2,0-3.2-1.7-3.2-3.3
						C213.1,553,214.9,551.8,216.3,551.8z M216.1,552.4c-0.9,0-1.6,0.9-1.6,2.6c0,1.9,0.8,3.3,2,3.3c0.9,0,1.6-0.7,1.6-2.7
						C218,553.8,217.4,552.4,216.1,552.4z"/>
					<path class="st7" d="M225.7,557.3c-0.6,0.9-1.6,1.5-2.4,1.5c-1.8,0-2.9-1.5-2.9-3.1c0-1.2,0.5-2.2,1.4-2.9
						c0.8-0.6,1.6-0.9,2.2-0.9c0.6,0,1.1,0.2,1.3,0.4s0.2,0.3,0.2,0.4c0,0.4-0.4,0.7-0.5,0.7s-0.1,0-0.3-0.1
						c-0.4-0.4-0.9-0.6-1.4-0.6c-0.9,0-1.8,0.8-1.8,2.4c0,2.1,1.3,2.8,2.2,2.8c0.6,0,1.1-0.2,1.7-0.8L225.7,557.3z"/>
					<path class="st7" d="M233.4,558.6c-0.8,0-1.6,0-1.9,0c-0.1-0.1-2.3-2.9-2.4-3c-0.2-0.2-0.3-0.3-0.4-0.3c-0.1,0-0.2,0-0.3,0v1.7
						c0,1,0.1,1.1,1,1.2v0.4h-3.1v-0.4c1-0.1,1-0.2,1-1.2v-7.2c0-1-0.1-1-1-1.1v-0.4c0.7-0.1,1.6-0.3,2.1-0.5c0,0.6,0,1.3,0,1.9v5.2
						c0.4-0.1,0.7-0.3,0.9-0.5c0.3-0.3,0.9-1,1.1-1.4c0.3-0.4,0.2-0.6-0.5-0.6V552l2.9-0.1v0.4c-1,0.2-1.3,0.3-1.9,1
						c-0.3,0.3-0.9,1.1-1.2,1.5c0.3,0.4,1.7,2.2,2.2,2.7c0.7,0.7,0.9,0.8,1.4,0.8L233.4,558.6L233.4,558.6z"/>
					<path class="st7" d="M239.9,551.8c1.8,0,3.1,1.4,3.1,3.4c0,2.4-1.7,3.6-3.1,3.6c-2,0-3.2-1.7-3.2-3.3
						C236.8,553,238.6,551.8,239.9,551.8z M239.8,552.4c-0.9,0-1.6,0.9-1.6,2.6c0,1.9,0.8,3.3,2,3.3c0.9,0,1.6-0.7,1.6-2.7
						C241.7,553.8,241,552.4,239.8,552.4z"/>
					<path class="st7" d="M245,552v-0.4c0-1.1,0.4-2.2,1.2-3c0.5-0.5,1-0.7,1.6-0.8c0.5,0,0.9,0.2,1.1,0.5c0.1,0.2,0.2,0.3,0.1,0.5
						c0,0.1-0.2,0.4-0.3,0.5c-0.2,0.1-0.3,0.1-0.4,0c-0.3-0.3-0.7-0.6-1.1-0.6c-1.1,0-1.1,1.5-1.1,2.7v0.7h1.5
						c0.1,0.1,0,0.5-0.1,0.6h-1.4v4.3c0,1.1,0.2,1.1,1.2,1.2v0.4H244v-0.4c0.9-0.1,1-0.2,1-1.1v-4.4h-1l-0.1-0.2l0.3-0.5H245z"/>
					<path class="st7" d="M256.4,558.6v-0.4c0.9-0.1,1-0.3,0.8-0.8c-0.2-0.6-0.5-1.3-0.8-2.3h-3.1c-0.2,0.7-0.4,1.3-0.6,1.9
						c-0.3,1-0.1,1.1,1.1,1.2v0.4h-3.3v-0.4c0.9-0.1,1.1-0.2,1.6-1.6l2.9-7.9l0.5-0.1c0.9,2.6,1.9,5.4,2.8,8
						c0.5,1.3,0.6,1.4,1.6,1.5v0.4L256.4,558.6L256.4,558.6z M255,550.6c-0.5,1.3-0.9,2.7-1.4,3.8h2.7L255,550.6z"/>
					<path class="st7" d="M262.1,556.4c-0.3,0.3-0.5,0.6-0.5,0.7c0,0.3,0.2,0.6,0.9,0.6c0.5,0,1.1,0,1.6,0c0.9,0,2.1,0.3,2.1,1.8
						c0,1.6-1.7,3-3.6,3c-1.6,0-2.5-1-2.5-1.9c0-0.3,0.1-0.6,0.4-0.9c0.3-0.3,0.8-0.8,1.2-1.1c-0.5-0.1-0.9-0.5-1.1-0.8
						c-0.1-0.2-0.2-0.5-0.2-0.6c0.5-0.2,1-0.6,1.3-1L262.1,556.4z M262.8,556.6c-1.3,0-2.4-0.9-2.4-2.3c0-1.7,1.4-2.5,2.6-2.5
						c0.5,0,0.9,0.1,1.4,0.4c0.7,0,1.5-0.1,1.9-0.2l0.1,0.1c-0.1,0.2-0.3,0.7-0.5,0.8c-0.2,0-0.7-0.1-0.9-0.1
						c0.2,0.3,0.4,0.8,0.4,1.4C265.3,555.8,264,556.6,262.8,556.6z M263.1,558.8c-0.7,0-1,0.1-1.3,0.3c-0.4,0.3-0.7,0.8-0.7,1.2
						c0,0.8,0.8,1.4,1.9,1.4c1.3,0,2.1-0.7,2.1-1.7c0-0.5-0.2-0.9-0.6-1.1C264.2,558.8,263.7,558.8,263.1,558.8z M262.8,552.3
						c-0.6,0-1.2,0.6-1.2,1.8s0.6,2,1.3,2c0.6,0,1.2-0.6,1.2-1.8C264.1,553.1,263.6,552.3,262.8,552.3z"/>
					<path class="st7" d="M272,557.3c-0.9,1.2-1.9,1.5-2.4,1.5c-1.7,0-2.8-1.5-2.8-3.2c0-1,0.3-2,0.9-2.6c0.6-0.7,1.4-1.1,2.1-1.1
						c1.2,0,2.2,1.1,2.2,2.3c0,0.3-0.1,0.4-0.3,0.5c-0.3,0.1-2.1,0.2-3.8,0.3c0,2,1.1,2.8,2.1,2.8c0.6,0,1.1-0.3,1.6-0.8L272,557.3z
						 M269.5,552.4c-0.7,0-1.3,0.6-1.5,1.9c0.8,0,1.6,0,2.4,0c0.3,0,0.3-0.1,0.3-0.3C270.8,553.1,270.3,552.4,269.5,552.4z"/>
					<path class="st7" d="M276.6,553.8c-0.3-0.9-0.6-1.5-1.5-1.5c-0.5,0-0.9,0.4-0.9,1s0.4,0.9,1.2,1.3c1.2,0.6,1.8,1.1,1.8,2.1
						c0,1.4-1.2,2.1-2.3,2.1c-0.7,0-1.4-0.2-1.7-0.4c-0.1-0.4-0.2-1.3-0.3-1.8l0.4-0.1c0.3,1,0.8,1.7,1.7,1.7c0.5,0,1-0.4,1-1
						c0-0.7-0.4-1-1.1-1.4c-1-0.5-1.8-1-1.8-2.1s0.9-1.9,2.2-1.9c0.6,0,1.1,0.2,1.4,0.2c0,0.4,0.1,1.3,0.2,1.7L276.6,553.8z"/>
					<path class="st7" d="M209.5,569.1c-0.2-1-0.6-2-2-2c-1.1,0-1.5,0.9-1.5,1.6c0,1,0.6,1.6,1.8,2.2c1.7,0.9,2.4,1.6,2.4,3
						c0,1.6-1.3,2.8-3.1,2.8c-0.9,0-1.6-0.3-2.2-0.5c-0.1-0.4-0.3-1.4-0.4-2.2l0.4-0.1c0.3,1,0.9,2.3,2.4,2.3c1,0,1.6-0.8,1.6-1.7
						c0-1.2-0.6-1.6-1.8-2.3c-1.5-0.9-2.3-1.6-2.3-3c0-1.3,1.1-2.6,2.9-2.6c0.8,0,1.6,0.2,1.9,0.3c0.1,0.5,0.1,1.1,0.2,2.1
						L209.5,569.1z"/>
					<path class="st7" d="M215.5,566.9c2,0,3.3,0.4,4.1,1.3c0.7,0.7,1.2,1.8,1.2,3.2c0,1.8-0.7,3.2-1.8,4c-1.1,0.9-2.5,1.2-4.2,1.2
						h-3.3v-0.4c1.2-0.1,1.3-0.2,1.3-1.5v-6c0-1.3-0.2-1.4-1.3-1.5v-0.4h4V566.9z M214,574.6c0,1.1,0.5,1.4,1.5,1.4
						c2.6,0,3.9-1.8,3.9-4.5c0-1.6-0.5-2.9-1.6-3.6c-0.7-0.4-1.5-0.6-2.4-0.6c-0.6,0-1,0.1-1.1,0.2c-0.1,0.1-0.2,0.3-0.2,0.8
						L214,574.6L214,574.6z"/>
					<path class="st7" d="M226.9,576.6v-0.4c0.9-0.1,1-0.3,0.8-0.8c-0.2-0.6-0.5-1.3-0.8-2.3h-3.1c-0.2,0.7-0.4,1.3-0.6,1.9
						c-0.3,1-0.1,1.1,1,1.2v0.4H221v-0.4c0.9-0.1,1.1-0.2,1.6-1.6l2.9-7.9l0.5-0.1c0.9,2.6,1.9,5.4,2.8,8c0.5,1.3,0.6,1.4,1.6,1.5
						v0.4L226.9,576.6L226.9,576.6z M225.5,568.6c-0.5,1.3-0.9,2.7-1.4,3.8h2.7L225.5,568.6z"/>
					<path class="st7" d="M242.6,574.2c-0.2,0.7-0.6,1.8-0.8,2.3c-0.4,0.1-1.5,0.4-2.6,0.4c-3.4,0-5.1-2.4-5.1-5
						c0-3.1,2.2-5.2,5.4-5.2c1.2,0,2.2,0.3,2.7,0.3c0.1,0.7,0.2,1.6,0.3,2.3l-0.4,0.1c-0.3-1-0.6-1.6-1.3-1.9
						c-0.4-0.2-1-0.3-1.5-0.3c-2.3,0-3.6,1.8-3.6,4.3c0,2.9,1.4,4.8,3.7,4.8c1.4,0,2.2-0.7,2.9-2.2L242.6,574.2z"/>
					<path class="st7" d="M247.6,576.6v-0.4c0.8-0.1,0.9-0.2,0.9-1.2v-2.5c0-1.2-0.5-1.9-1.4-1.9c-0.5,0-1.1,0.3-1.5,0.8v3.5
						c0,1,0.1,1.1,1,1.2v0.4h-3.1v-0.4c0.8-0.1,1-0.2,1-1.2v-7.2c0-0.8,0-1-1-1.1v-0.4c0.8-0.1,1.6-0.3,2.1-0.5c0,0.6,0,1.2,0,1.9
						v3.3c0.5-0.5,1.3-1.1,2.1-1.1c1.2,0,2,0.8,2,2.6v2.6c0,1,0.1,1.1,0.9,1.1v0.4h-3V576.6z"/>
					<path class="st7" d="M258.2,576.3c-0.7,0.1-1.4,0.3-2.2,0.5c0-0.2,0-0.8,0-1.2c-0.8,0.7-1.4,1.2-2.2,1.2c-1,0-1.8-0.6-1.8-2.2
						v-2.9c0-0.8-0.1-0.9-0.5-1l-0.4-0.1v-0.4c0.6,0,1.5-0.2,2-0.3c0,0.5,0,1.2,0,2.2v2c0,1.3,0.7,1.7,1.3,1.7c0.5,0,1-0.2,1.5-0.7
						v-3.5c0-0.8-0.2-0.9-0.7-1l-0.5-0.1v-0.4c0.9,0,1.9-0.2,2.2-0.3v5c0,0.8,0.1,0.9,0.7,0.9h0.4v0.6H258.2z"/>
					<path class="st7" d="M262.2,576.6H259v-0.4c0.9-0.1,1-0.2,1-1.1V572c0-1-0.1-1-0.9-1.1v-0.4c0.7-0.1,1.3-0.3,2-0.6
						c0,0.5,0,1.2,0,1.6c0.5-0.8,1.1-1.6,1.8-1.6c0.5,0,0.8,0.3,0.8,0.7c0,0.3-0.2,0.7-0.5,0.8c-0.1,0.1-0.3,0.1-0.4,0
						c-0.2-0.2-0.4-0.4-0.6-0.4c-0.3,0-0.8,0.5-1.1,1.2v2.8c0,1,0.1,1.1,1.2,1.2L262.2,576.6L262.2,576.6z"/>
					<path class="st7" d="M269.6,575.3c-0.6,0.9-1.6,1.5-2.4,1.5c-1.8,0-2.9-1.5-2.9-3.1c0-1.2,0.5-2.2,1.4-2.9
						c0.8-0.6,1.6-0.9,2.2-0.9s1.1,0.2,1.3,0.4c0.2,0.2,0.2,0.3,0.2,0.4c0,0.4-0.4,0.7-0.5,0.7s-0.1,0-0.3-0.1
						c-0.4-0.4-0.9-0.6-1.4-0.6c-0.9,0-1.8,0.8-1.8,2.4c0,2.1,1.3,2.8,2.2,2.8c0.6,0,1.1-0.2,1.7-0.8L269.6,575.3z"/>
					<path class="st7" d="M274.2,576.6v-0.4c0.8-0.1,0.9-0.2,0.9-1.2v-2.5c0-1.2-0.5-1.9-1.4-1.9c-0.5,0-1.1,0.3-1.5,0.8v3.5
						c0,1,0.1,1.1,1,1.2v0.4h-3.1v-0.4c0.8-0.1,1-0.2,1-1.2v-7.2c0-0.8,0-1-1-1.1v-0.4c0.8-0.1,1.6-0.3,2.1-0.5c0,0.6,0,1.2,0,1.9
						v3.3c0.5-0.5,1.3-1.1,2.1-1.1c1.2,0,2,0.8,2,2.6v2.6c0,1,0.1,1.1,0.9,1.1v0.4h-3V576.6z"/>
				</g>
			</g>
		</g>
	</g>
	<text transform="matrix(0.8647 0 0 1 44.0859 210.0109)" class="st7 st9 st14">IGNITE YOUR HEALTH</text>
	<text transform="matrix(0.8647 0 0 1 72.707 250.8107)" class="st7 st9 st14">IGNITE YOUR LIFE</text>
	<g>
		<g>
			<g>
				<defs>
					<rect id="SVGID_5_" x="0.6" y="322.5" width="121.1" height="109.7"/>
				</defs>
				<clipPath id="SVGID_6_">
					<use xlink:href="#SVGID_5_"  style="overflow:visible;"/>
				</clipPath>
				<g class="st15">
					
						<image style="overflow:visible;enable-background:new    ;" width="700" height="466" xlink:href="C:\Users\Crn96\Downloads\Top300_0066_web_1665405871798-Copy.jpg"  transform="matrix(0.4049 0 0 0.3668 -83.0089 315.4696)">
					</image>
				</g>
			</g>
		</g>
	</g>
	<rect x="0.6" y="485.2" class="st7" width="395.9" height="24.2"/>
	<text transform="matrix(0.8647 0 0 1 134.2949 503.1339)" class="st0 st9 st16">HEALTH IS WEALTH</text>
	<g>
		<g>
			<g>
				<defs>
					<rect id="SVGID_7_" x="-0.4" y="291.7" width="396.9" height="31.5"/>
				</defs>
				<clipPath id="SVGID_8_">
					<use xlink:href="#SVGID_7_"  style="overflow:visible;"/>
				</clipPath>
				<g class="st17">
					
						<image style="overflow:visible;enable-background:new    ;" width="1600" height="1600" xlink:href="C:\Users\Crn96\Downloads\1600px_COLOURBOX34432642.jpg"  transform="matrix(1.0025 0 0 1.0025 -676.9752 -1235.1788)">
					</image>
				</g>
			</g>
		</g>
	</g>
	<text transform="matrix(0.8647 0 0 1 44.9951 314.5031)" class="st0 st9 st16">VENUE: JUBILEE PARK, SUNNYSIDE PRETORIA</text>
	<text transform="matrix(0.8647 0 0 1 288.6318 385.0812)" class="st7 st3 st8">Mental Health counseling</text>
</g>
</svg>
