<?xml version="1.0" encoding="utf-8"?>
<!-- Generator: Adobe Illustrator 25.1.0, SVG Export Plug-In . SVG Version: 6.00 Build 0)  -->
<svg version="1.1" id="Layer_1" xmlns="http://www.w3.org/2000/svg" xmlns:xlink="http://www.w3.org/1999/xlink" x="0px" y="0px"
	 viewBox="0 0 858.8 1207.8" style="enable-background:new 0 0 858.8 1207.8;" xml:space="preserve">
<style type="text/css">
	.st0{fill:#009245;stroke:#2F7A40;stroke-miterlimit:10;}
	.st1{fill:#FBAE17;}
	.st2{fill:none;stroke:#2F7A40;stroke-miterlimit:10;}
	.st3{fill:#2F7A40;}
	.st4{font-family:'FranklinGothic-Heavy';}
	.st5{font-size:68.0912px;}
	.st6{fill:#E2A122;}
	.st7{font-family:'SFProDisplay-Bold';}
	.st8{font-size:63px;}
	.st9{font-size:57px;}
	.st10{font-size:44px;}
	.st11{fill:#009245;}
	.st12{font-size:24px;}
	.st13{fill:#FFFFFF;}
	.st14{font-size:38px;}
	.st15{font-size:35px;}
	.st16{fill:none;stroke:#006837;stroke-width:5;stroke-miterlimit:10;}
</style>
<path class="st0" d="M-0.5,1075.5c33,22.6,84.5,52.4,153,72c69.5,19.9,129.8,21.6,170.1,19.7c-7.7,13.4-15.4,26.9-23.1,40.3
	c-41-1.5-111.8-9.5-188-49C60.5,1132.1,23.7,1100.2-0.5,1075.5z"/>
<path class="st1" d="M858.5,1207.5c-198.3-72.7-345.2-76.4-445-65c-53.3,6.1-146,22.6-261-8c-67.4-17.9-119.3-45.8-153-67
	c53.9,18.5,135.2,40.3,235,42c85.9,1.5,145.6-12.5,183-19c95.3-16.5,238.5-17.1,441,60C858.5,1169.5,858.5,1188.5,858.5,1207.5z"/>
<g>
	<defs>
		<path id="SVGID_1_" d="M821,1180.5L643.4,1488c-9.6,16.6-30.8,22.3-47.4,12.7l-319.4-184.4c-16.6-9.6-22.3-30.8-12.7-47.4
			l177.6-307.6c9.6-16.6,30.8-22.3,47.4-12.7L808.3,1133C824.9,1142.6,830.6,1163.9,821,1180.5z"/>
	</defs>
	<clipPath id="SVGID_2_">
		<use xlink:href="#SVGID_1_"  style="overflow:visible;"/>
	</clipPath>
	<g style="clip-path:url(#SVGID_2_);">
		
			<image style="overflow:visible;" width="3648" height="5472" xlink:href="C:\Users\Crn96\Downloads\goutham-krishna-h5wvMCdOV3w-unsplash.jpg"  transform="matrix(0.2331 0 0 0.2331 95 -44)">
		</image>
	</g>
	<use xlink:href="#SVGID_1_"  style="overflow:visible;fill:none;stroke:#FBAE17;stroke-width:6;stroke-miterlimit:10;"/>
</g>
<g>
	<defs>
		<path id="SVGID_3_" d="M1047.2,787.2l-177.6,307.6c-9.6,16.6-30.8,22.3-47.4,12.7L502.8,923.1c-16.6-9.6-22.3-30.8-12.7-47.4
			l177.6-307.6c9.6-16.6,30.8-22.3,47.4-12.7l319.4,184.4C1051.1,749.4,1056.8,770.6,1047.2,787.2z"/>
	</defs>
	<clipPath id="SVGID_4_">
		<use xlink:href="#SVGID_3_"  style="overflow:visible;"/>
	</clipPath>
	<g style="clip-path:url(#SVGID_4_);">
		
			<image style="overflow:visible;" width="3648" height="5472" xlink:href="C:\Users\Crn96\Downloads\goutham-krishna-h5wvMCdOV3w-unsplash.jpg"  transform="matrix(0.2331 0 0 0.2331 196 177)">
		</image>
	</g>
	<use xlink:href="#SVGID_3_"  style="overflow:visible;fill:none;stroke:#FBAE17;stroke-width:5;stroke-miterlimit:10;"/>
</g>
<path class="st2" d="M1003.2,2.2L825.7,309.8c-9.6,16.6-30.8,22.3-47.4,12.7L458.8,138.1c-16.6-9.6-22.3-30.8-12.7-47.4l177.6-307.6
	c9.6-16.6,30.8-22.3,47.4-12.7L990.5-45.2C1007.1-35.6,1012.8-14.4,1003.2,2.2z"/>
<text transform="matrix(0.8647 0 0 1 54.7529 284.1206)" class="st3 st4 st5">HEALTH EXPO</text>
<text transform="matrix(0.8647 0 0 1 54.7529 359.1206)"><tspan x="0" y="0" class="st6 st7 st8">IGNITE YOUR HEALTH</tspan><tspan x="0" y="75.6" class="st6 st7 st8">IGNITE YOUR LIFE</tspan></text>
<text transform="matrix(0.8647 0 0 1 60.7529 580.1206)" class="st6 st7 st9">Free For All</text>
<text transform="matrix(0.9175 0 0 1 63.7529 736.1211)" class="st6 st7 st10">Get a free checkup</text>
<text transform="matrix(0.8647 0 0 1 65.7529 767.1206)" class="st11 st7 st12">Glucose and Bp Screening</text>
<text transform="matrix(0.8647 0 0 1 65.7529 792.3206)" class="st11 st7 st12">Nutrition and diet education</text>
<text transform="matrix(0.8647 0 0 1 65.7529 817.5206)" class="st11 st7 st12">Stress massage</text>
<text transform="matrix(0.8647 0 0 1 65.7529 842.7206)" class="st11 st7 st12">BMI check </text>
<text transform="matrix(0.8647 0 0 1 63.7529 893.1206)" class="st11 st7 st12"> And many more</text>
<text transform="matrix(0.8647 0 0 1 65.7529 867.9206)" class="st11 st7 st12">lung capacity check</text>
<g>
	<path class="st3" d="M466.3,514h-390c-11.9,0-21.5-9.6-21.5-21.5v-11c0-11.9,9.6-21.5,21.5-21.5h390c11.9,0,21.5,9.6,21.5,21.5v11
		C487.8,504.4,478.1,514,466.3,514z"/>
	<text transform="matrix(0.9879 0 0 1 70.5658 502.0781)" class="st13 st7 st14">15 October 2023, 11 am</text>
</g>
<g>
	<path class="st6" d="M453.5,670h-374c-11.9,0-21.5-9.6-21.5-21.5v-11c0-11.9,9.6-21.5,21.5-21.5h374c11.9,0,21.5,9.6,21.5,21.5v11
		C475,660.4,465.4,670,453.5,670z"/>
	<text transform="matrix(1 0 0 1 72.4155 657.0781)" class="st13 st7 st15">Jubilee Park Sunnyside </text>
</g>
<g>
	<circle class="st16" cx="400.2" cy="872.3" r="56.7"/>
	<polygon class="st1" points="429,867.7 404.6,867.7 404.6,838.3 395.8,838.3 395.8,867.7 371.4,867.7 371.4,876.8 395.8,876.8 
		395.8,906.3 404.6,906.3 404.6,876.8 429,876.8 	"/>
</g>
<text transform="matrix(0.9175 0 0 1 57.1664 959.0439)" class="st6 st7 st10">Get in touch with</text>
<text transform="matrix(0.8647 0 0 1 59.1664 990.0435)" class="st11 st7 st12">Chenai on 0603125707</text>
<text transform="matrix(0.8647 0 0 1 59.1664 1015.2435)" class="st11 st7 st12">?</text>
</svg>
